<?xml version="1.0" encoding="UTF-8"?>
<svg width="20px" height="20px" viewBox="0 0 20 20" version="1.1" xmlns="http://www.w3.org/2000/svg" xmlns:xlink="http://www.w3.org/1999/xlink">
    <!-- Generator: Sketch 44.1 (41455) - http://www.bohemiancoding.com/sketch -->
    <title>icon-play</title>
    <desc>Created with Sketch.</desc>
    <defs>
        <polygon id="path-1" points="9.73131038 4.47145877e-05 0 4.47145877e-05 0 19.6744633 9.73131038 19.6744633 19.4626208 19.6744633 19.4626208 4.47145877e-05"></polygon>
    </defs>
    <g id="Symbols" stroke="none" stroke-width="1" fill="none" fill-rule="evenodd">
        <g id="Header" transform="translate(-1126.000000, -39.000000)">
            <g id="Menu-bis">
                <g transform="translate(970.000000, 26.000000)">
                    <g id="Live-streaming" transform="translate(156.476879, 13.116279)">
                        <g id="icon-play" transform="translate(-0.000000, 0.000000)">
                            <path d="M7.7406044,13.9314335 L7.7406044,5.73905026 L14.0020899,9.8373658 L7.7406044,13.9314335 Z M15.0596776,9.45997468 L7.58313839,4.56931665 C7.50838627,4.50537479 7.41350857,4.46423737 7.30779403,4.46200164 C7.2885531,4.46155449 7.26909101,4.46222521 7.24985008,4.46446094 C7.02205515,4.48994826 6.85109837,4.68691601 6.8559639,4.91853758 L6.8559639,14.7559705 C6.8581755,15.002795 7.05810425,15.2013277 7.30248619,15.1988684 C7.38696936,15.1981977 7.46946208,15.172934 7.54023332,15.1262072 L15.0596776,10.2076026 C15.2640296,10.0718938 15.3206465,9.79466337 15.1866235,9.58830555 C15.1534495,9.53710735 15.1101021,9.49351062 15.0596776,9.45997468 L15.0596776,9.45997468 Z" id="Fill-1" fill="#BB9A64"></path>
                            <mask id="mask-2" fill="white">
                                <use xlink:href="#path-1"></use>
                            </mask>
                            <g id="Clip-4"></g>
                            <path d="M17.9627802,13.1159512 C17.9585782,13.1262355 17.9548185,13.1362963 17.9506164,13.1465807 C17.9032881,13.26731 17.8530848,13.3862508 17.8011122,13.5038502 C17.7900542,13.5288904 17.7789962,13.553707 17.767717,13.5783 C17.7219368,13.679355 17.6739451,13.7786214 17.6248475,13.8769934 C17.6049431,13.9167894 17.5850387,13.956809 17.5644708,13.9963814 C17.5222292,14.0777619 17.4784395,14.1580246 17.4337652,14.2378402 C17.4039086,14.2912741 17.374052,14.3444845 17.3430895,14.3972477 C17.3054923,14.4618603 17.2665681,14.5251314 17.2274228,14.5884025 C17.1871717,14.6527915 17.1471417,14.7171805 17.1055636,14.7804517 C17.0723896,14.8312027 17.0381097,14.8808359 17.0040511,14.9304691 C16.9545112,15.0024596 16.9049713,15.0744501 16.853441,15.144652 C16.8235844,15.1857894 16.7928432,15.2260326 16.7621019,15.2664993 C16.7050426,15.3418433 16.6477621,15.4167403 16.5884912,15.4900722 C16.5595192,15.5260674 16.5298838,15.561392 16.5002483,15.5967165 C16.4381023,15.6711663 16.375514,15.7449453 16.3111564,15.817383 C16.2804151,15.8518132 16.2487892,15.8860199 16.2173845,15.920003 C16.1530269,15.9897577 16.088227,16.0592889 16.0221001,16.1272551 C15.986051,16.1636975 15.9495596,16.1992456 15.9132893,16.2350172 C15.8500375,16.2973941 15.7865646,16.3595474 15.7213223,16.4199121 C15.677975,16.4606023 15.6335218,16.4999512 15.5892898,16.5395236 C15.5297977,16.5925104 15.4700844,16.6454971 15.4090442,16.6973661 C15.3559658,16.7420807 15.3020027,16.7854538 15.2480397,16.8290505 C15.1938554,16.8726473 15.1396712,16.916244 15.0846023,16.9584993 C15.0213505,17.0072382 14.956993,17.0541885 14.8924142,17.1011388 C14.8444224,17.1360162 14.796873,17.1711171 14.7482178,17.2048766 C14.675235,17.2556277 14.6013675,17.3045902 14.5268365,17.3531055 C14.4841526,17.3808285 14.441911,17.4087752 14.399006,17.4358275 C14.3182825,17.4865785 14.2368956,17.5350939 14.1548452,17.5827149 C14.1154787,17.6059665 14.0761122,17.6294416 14.0360822,17.6520225 C13.951599,17.69942 13.8664524,17.7448053 13.7804211,17.7895199 C13.7399488,17.8107593 13.6994765,17.8322223 13.6585619,17.852791 C13.574521,17.8948227 13.4895955,17.9348423 13.4044489,17.9741911 C13.3584476,17.9954305 13.3126674,18.0168936 13.266445,18.0372387 C13.1868273,18.0721161 13.1067673,18.1052049 13.0262651,18.1380701 C12.9707539,18.1604274 12.9154638,18.1830082 12.8595103,18.2044712 C12.7887391,18.2315236 12.7175255,18.2567873 12.646312,18.2820511 C12.5766465,18.3064205 12.5072022,18.33079 12.4370945,18.3535944 C12.3791505,18.3723745 12.3205431,18.3900368 12.262378,18.407699 C12.1756832,18.4336335 12.0885461,18.4588973 12.0009667,18.482596 C11.9582828,18.4939982 11.9149354,18.5049533 11.8720304,18.5154612 C11.7660947,18.54229 11.6597166,18.5675537 11.552454,18.589911 C11.5261359,18.5957239 11.4998179,18.6008661 11.4734998,18.6062318 C11.3485443,18.6314956 11.2224831,18.6545236 11.0955372,18.674198 C11.0844792,18.6759866 11.0738635,18.6777752 11.0630266,18.6793402 C10.6306586,18.7452942 10.187896,18.7797244 9.73717167,18.779948 L9.7258925,18.779948 C9.5905425,18.779948 9.45629831,18.7757001 9.32249643,18.7696636 C9.29418793,18.7683222 9.26587944,18.7672043 9.23734978,18.7656393 C9.1351738,18.76005 9.03366131,18.7513307 8.93236997,18.7421642 C8.86867585,18.7363513 8.80498174,18.7305384 8.74128762,18.7231605 C8.67781466,18.7162297 8.61478403,18.7075104 8.55197455,18.6990146 C8.45090437,18.6849295 8.3498342,18.6706208 8.24876402,18.6531821 C8.22067668,18.6482635 8.19303167,18.6431214 8.16494433,18.6379792 C8.0331329,18.6140569 7.9011003,18.5876753 7.76906771,18.5572693 C7.7657503,18.5565986 7.76221174,18.5557043 7.75867318,18.55481 C7.31922801,18.4533079 6.89504289,18.3200585 6.4878871,18.1588624 C6.47771373,18.1546145 6.46754037,18.1508137 6.457367,18.1465659 C6.33794053,18.0987212 6.22028335,18.0479702 6.10395312,17.995207 C6.07940435,17.9840283 6.05463441,17.9730733 6.03008564,17.961671 C5.93056358,17.9153914 5.83236849,17.8668761 5.73505803,17.8172429 C5.69547037,17.7968978 5.65588271,17.7769998 5.61673736,17.7559839 C5.53623508,17.7132815 5.45705975,17.6690141 5.37832675,17.6242995 C5.32524832,17.5938936 5.27239105,17.5637112 5.2199761,17.5321874 C5.15650314,17.49418 5.09391483,17.4548312 5.03154767,17.4154823 C4.96763239,17.3750156 4.90371712,17.3341018 4.84090764,17.2920701 C4.79092545,17.2585341 4.74204907,17.2241039 4.69295152,17.1898973 C4.6215168,17.1398169 4.5505244,17.0892894 4.48085896,17.0374205 C4.4401655,17.0070146 4.40035667,16.9761615 4.36032669,16.9450849 C4.28579573,16.8874031 4.21170709,16.8292741 4.13916656,16.7695801 C4.10355978,16.7402921 4.06883764,16.7101097 4.03389434,16.680151 C3.96024802,16.6175505 3.88682286,16.5540558 3.81538814,16.4889961 C3.78110832,16.4579195 3.7479343,16.4261721 3.71431796,16.3946483 C3.64487368,16.3295886 3.57609288,16.2640817 3.50908137,16.1967863 C3.47281111,16.1605674 3.43764665,16.1236779 3.40226103,16.0870119 C3.34055735,16.0230701 3.27907484,15.9589047 3.21914044,15.8929506 C3.17933162,15.8491303 3.14040744,15.8039686 3.10126209,15.759254 C3.04862598,15.6993365 2.99621103,15.6387482 2.94512305,15.5772656 C2.90089102,15.5236081 2.85798596,15.4690563 2.81508089,15.4145045 C2.77173351,15.3597292 2.72838612,15.3049538 2.6863657,15.2490606 C2.63837395,15.1853423 2.59193032,15.1202826 2.54570786,15.0552228 C2.51120688,15.0067075 2.47648474,14.9581922 2.4428684,14.9092297 C2.39288621,14.8352271 2.34423098,14.7605537 2.29623924,14.6854332 C2.26881538,14.6422836 2.24117037,14.5995812 2.21440999,14.5559845 C2.1644278,14.4748275 2.11665721,14.3925526 2.06932895,14.3098307 C2.04632829,14.2695875 2.02288532,14.2293444 2.00054815,14.1888777 C1.9536622,14.10392 1.9087667,14.0176208 1.86453467,13.9310981 C1.84374562,13.8899607 1.82251425,13.8490468 1.80216752,13.8076858 C1.76036825,13.7227281 1.72100175,13.6368761 1.68185641,13.550577 C1.66106736,13.5040738 1.63983598,13.4577942 1.61971041,13.4110674 C1.58498827,13.3310283 1.55247773,13.2503185 1.52018836,13.1689379 C1.49763002,13.1125976 1.47529285,13.0560336 1.45406148,12.9992461 C1.4273011,12.9281499 1.40231001,12.8566066 1.37754007,12.7848396 C1.35321246,12.7144142 1.32932717,12.6439887 1.30654767,12.5726689 C1.28819138,12.5143164 1.27049857,12.4550696 1.25324808,12.3960463 C1.22737235,12.3084057 1.2021601,12.220318 1.17893828,12.1315595 C1.16765912,12.0886335 1.15704343,12.0452604 1.14642774,12.0021108 C1.12010969,11.8947958 1.09511859,11.7870336 1.07256026,11.6781536 C1.06703126,11.651772 1.06194458,11.6253904 1.05685789,11.5990088 C1.03164564,11.4722429 1.00886615,11.3448063 0.989182894,11.2162519 C0.987634773,11.2055204 0.986086652,11.1947889 0.984317371,11.1838338 C0.919296294,10.7465252 0.885016475,10.2987086 0.884795315,9.84284334 L0.884795315,9.83255899 C0.884795315,9.6952852 0.888776197,9.55912928 0.894968681,9.42342051 C0.896295641,9.39525032 0.897401442,9.36708013 0.898949563,9.33868636 C0.904699726,9.23517209 0.913103811,9.13210497 0.922171376,9.02948499 C0.928142699,8.96531956 0.933671703,8.90115412 0.940969987,8.83698869 C0.948047111,8.77259968 0.956672356,8.70865782 0.96507644,8.64471596 C0.978788368,8.54299027 0.992942616,8.44104101 1.01019311,8.33931533 C1.01505863,8.31047442 1.02036647,8.28208066 1.02545315,8.25368689 C1.04911729,8.12066099 1.07499302,7.9876351 1.10484964,7.8546092 C1.10573428,7.85058488 1.10684008,7.84656057 1.10772472,7.84275983 C1.20813142,7.39896755 1.33972169,6.9706018 1.49917814,6.55922759 C1.50338019,6.54849609 1.50736107,6.53798816 1.51156311,6.52725666 C1.55889138,6.40675085 1.60909473,6.28803362 1.66106736,6.17065782 C1.67212536,6.14561765 1.68318337,6.12080106 1.69424137,6.09620803 C1.74002152,5.99515307 1.78801327,5.89611025 1.83711082,5.79751459 C1.85723639,5.7577186 1.8771408,5.71769905 1.89770869,5.67812664 C1.93972911,5.59674609 1.98373998,5.51670698 2.027972,5.43711501 C2.05804978,5.38345751 2.08812756,5.3298 2.11908998,5.27681321 C2.1566872,5.21264778 2.19561138,5.14960021 2.23453556,5.08655264 C2.27456554,5.02194006 2.31503785,4.95732748 2.35683711,4.89383277 C2.38978997,4.84330529 2.42384863,4.79367209 2.45790729,4.7440389 C2.50744716,4.67182484 2.55720819,4.6002815 2.60873849,4.52963245 C2.63837395,4.4887186 2.66911521,4.44847548 2.69963531,4.40823235 C2.75669462,4.33266469 2.81441741,4.25776776 2.87368833,4.18421226 C2.9026603,4.14844059 2.93229576,4.11333964 2.96148889,4.07823869 C3.02363489,4.00356533 3.08644437,3.92956268 3.15102312,3.85690148 C3.18176438,3.82247125 3.21339028,3.78871173 3.24457386,3.75472865 C3.30893145,3.68452674 3.37373137,3.61521913 3.44007941,3.54725296 C3.47568619,3.51103414 3.51217761,3.47548605 3.54822671,3.43971438 C3.61169966,3.37711395 3.67561494,3.3147371 3.74107834,3.25414884 C3.78420456,3.21390571 3.82821543,3.17500402 3.87200513,3.13587875 C3.93193953,3.08244482 3.99209508,3.02901089 4.05335644,2.97714197 C4.10621371,2.93242738 4.15995562,2.8892778 4.21369753,2.84590465 C4.26788176,2.80208436 4.32228715,2.75826406 4.37757718,2.71556163 C4.44060782,2.66726987 4.50474425,2.62054313 4.56888069,2.57381638 C4.6170936,2.53871543 4.6653065,2.50339091 4.71418289,2.46940782 C4.78672341,2.41888034 4.86036973,2.37036501 4.93423722,2.32207326 C4.97736344,2.29390307 5.0202685,2.2655093 5.06361589,2.2382334 C5.14345469,2.18815307 5.2243993,2.13986131 5.30600739,2.09224027 C5.34603737,2.06876512 5.38606735,2.04506638 5.42676082,2.02203837 C5.5105805,1.97486448 5.59550599,1.92970275 5.6808738,1.88521173 C5.72178842,1.8639723 5.76248189,1.84228573 5.80361767,1.82171702 C5.88743736,1.77968531 5.97236285,1.73966575 6.05750949,1.70031691 C6.1035108,1.67907748 6.14951211,1.65783805 6.19595573,1.63726934 C6.2749099,1.60239197 6.35496986,1.56930317 6.43525099,1.53666152 C6.49098334,1.51408066 6.54671569,1.49127622 6.60311152,1.46981321 C6.67344044,1.44298446 6.74443284,1.41772072 6.81564641,1.39245698 C6.88509068,1.36808753 6.95475612,1.34371808 7.02508504,1.32091364 C7.083029,1.30213351 7.14141527,1.28447125 7.19958038,1.26680899 C7.28649631,1.24087452 7.37341224,1.21538721 7.46121281,1.19191205 C7.50389672,1.18050983 7.54680178,1.16977833 7.58992801,1.15904683 C7.69586371,1.13221808 7.80246289,1.10695433 7.90994671,1.08437347 C7.9360436,1.07878414 7.9621405,1.07364197 7.98801623,1.06827622 C8.11363518,1.04301247 8.23969645,1.01976089 8.36708469,1.00008647 C8.37770037,0.998297886 8.38831606,0.996732875 8.39871058,0.995167865 C8.83152095,0.929213848 9.27450468,0.894783615 9.72545018,0.894336469 C10.3758821,0.895007188 11.0364874,0.965656237 11.6977562,1.11813298 C11.7200934,1.1237223 11.7426517,1.12573446 11.76521,1.12752304 C12.272109,1.24802886 12.7621999,1.41257854 13.2315017,1.61737135 C13.231944,1.61759493 13.2328286,1.6178185 13.2332709,1.61804207 C13.3007248,1.6475537 13.3666305,1.67930106 13.4329785,1.7103777 C13.4882686,1.73608858 13.5440009,1.76135233 13.5988486,1.78818108 C13.6901878,1.83311924 13.7804211,1.88006956 13.8699909,1.92813774 C13.8874626,1.9375278 13.9053766,1.94647072 13.9228482,1.95586078 C14.9090012,2.4935537 15.7825837,3.21524715 16.4989213,4.07533224 C16.5090947,4.08740518 16.5194892,4.09925455 16.5296626,4.11155106 C16.5924721,4.188013 16.6535123,4.26603996 16.7141101,4.34473763 C16.7335722,4.37000137 16.7534767,4.39504154 16.7727176,4.42052886 C16.8226998,4.48693002 16.8709127,4.55467262 16.9189044,4.62219165 C16.9467706,4.66154049 16.9750791,4.70044218 17.0022818,4.74023816 C17.0405425,4.7961314 17.0774762,4.85314249 17.1146311,4.90993002 C17.148911,4.96224609 17.1834119,5.01456216 17.2163648,5.06777252 C17.2455579,5.11427569 17.2734241,5.16167315 17.3015114,5.20862347 C17.3399933,5.27301247 17.378254,5.33717791 17.4151877,5.40246121 C17.4370826,5.44091575 17.4578717,5.48026459 17.4788819,5.51916628 C17.5193542,5.59316892 17.5593842,5.66717156 17.597866,5.74229207 C17.6151165,5.77605159 17.6314824,5.81070539 17.6482905,5.84491205 C17.687657,5.92472759 17.7268024,6.00499027 17.7639573,6.08614725 C17.7792173,6.11968319 17.7935927,6.15366628 17.8086316,6.18764937 C17.8446807,6.26902992 17.8802875,6.35063404 17.9136827,6.43335603 C17.9298274,6.47248129 17.9446451,6.5120537 17.9599051,6.55140254 C17.9902041,6.6285352 18.0200607,6.70589144 18.048148,6.78391839 C18.0667255,6.83556374 18.0837548,6.88765624 18.1014476,6.93974873 C18.1237848,7.00547918 18.146122,7.07120962 18.1671322,7.13761078 C18.1899117,7.21094271 18.2109219,7.28494535 18.2321533,7.35894799 C18.2449805,7.40455687 18.2586925,7.4497186 18.2710774,7.49532748 C18.2991648,7.60107748 18.3254828,7.70794535 18.3500316,7.81526036 C18.353349,7.82934545 18.3568876,7.84365412 18.360205,7.85796279 C18.5021898,8.49469852 18.5773842,9.15692156 18.5773842,9.83725402 C18.5773842,10.1303581 18.5625665,10.4198851 18.5353638,10.7056113 C18.5296136,10.7632931 18.5227577,10.8211985 18.5159017,10.8788803 C18.5079399,10.9504237 18.4990935,11.0217434 18.4891413,11.0926161 C18.4758717,11.185846 18.4614963,11.2792995 18.4453516,11.3725294 C18.4398226,11.4040532 18.4345148,11.4351298 18.4285434,11.4666536 C18.4070909,11.584253 18.3836479,11.7020759 18.3571087,11.8201224 C18.3562241,11.8236996 18.3553394,11.8272767 18.3544548,11.8310775 C18.2540481,12.2753169 18.1224578,12.7041298 17.9627802,13.1159512 M17.7973524,15.3371483 C17.7980159,15.3360304 17.7989006,15.3349126 17.7997852,15.3335711 C17.8824991,15.2097117 17.9621167,15.0838402 18.0395228,14.9557329 C18.0463787,14.9445542 18.0532347,14.933152 18.0598695,14.9219734 C18.1290926,14.8063862 18.195883,14.6887868 18.2604617,14.569846 C18.2752795,14.5425701 18.2900972,14.5155178 18.3046938,14.4882419 C18.3593203,14.3856219 18.4117353,14.2814369 18.4628233,14.1763576 C18.4858239,14.1289601 18.5090457,14.0811155 18.5313829,14.0334945 C18.571634,13.9471953 18.6105582,13.8600019 18.6483766,13.7723613 C18.6786755,13.7019358 18.708311,13.6315104 18.737283,13.5601906 C18.7647068,13.4920008 18.7914672,13.423364 18.8175641,13.3540563 C18.8529497,13.2608264 18.8870084,13.1671494 18.9195189,13.0728016 C18.9372117,13.0213798 18.9544622,12.969958 18.9714916,12.9180891 C19.0082041,12.8056319 19.0427051,12.692504 19.0752157,12.5784818 C19.086716,12.5389094 19.0979951,12.499337 19.108832,12.459541 C19.1424483,12.3365759 19.1736319,12.2122693 19.2026039,12.0872921 C19.2076906,12.0660526 19.2136619,12.0454839 19.2185274,12.0242445 C19.2227295,12.0054644 19.2258257,11.9866842 19.2298066,11.9679041 C19.2519226,11.8670727 19.2724905,11.7657942 19.2915103,11.6638449 C19.3025683,11.6052688 19.3127416,11.5466927 19.3224727,11.4883402 C19.3368481,11.4033825 19.35056,11.3182012 19.3627238,11.2325727 C19.3753299,11.1440378 19.3859456,11.0557265 19.3958978,10.9676388 C19.4027538,10.9092863 19.4098309,10.8513809 19.4153599,10.7928048 C19.4299565,10.6447995 19.4412357,10.4970178 19.4489763,10.3494596 C19.4491974,10.3470003 19.4494186,10.3443174 19.4494186,10.3416346 C19.4812656,9.72390254 19.4551687,9.11243055 19.3746665,8.51370222 C19.3735607,8.50610074 19.3722337,8.49894641 19.3711279,8.49134493 C19.3534351,8.36211977 19.3337518,8.23334175 19.3109723,8.10523446 C19.2992509,8.03905687 19.2853178,7.97377357 19.2724905,7.90781956 C19.2587786,7.83985338 19.2463936,7.77166364 19.2313547,7.70414461 C19.2081329,7.59794746 19.182036,7.49286818 19.1554968,7.3877889 C19.1486408,7.36140729 19.1426695,7.33457854 19.1358135,7.30819693 C18.8870084,6.36181268 18.5019686,5.47199239 18.0032525,4.65997548 C17.9981658,4.65192685 17.9935215,4.64365465 17.9884348,4.63560603 C17.9273946,4.53656321 17.864364,4.43930899 17.8000064,4.34294905 C17.7840828,4.31902674 17.7686016,4.29510444 17.7526781,4.27140571 C17.6984939,4.19181374 17.6427615,4.11356321 17.5863657,4.03575983 C17.5576149,3.99596385 17.5290852,3.95594429 17.4996709,3.91681903 C17.4549966,3.85645433 17.4087741,3.79765465 17.3625516,3.7386314 C17.3192043,3.68296173 17.2758569,3.62729207 17.2309614,3.5725167 C17.197345,3.53137928 17.1626229,3.49068901 17.1281219,3.44999873 C17.068851,3.37979683 17.0091378,3.31004207 16.9480976,3.24140518 C16.9262027,3.2172593 16.9043079,3.19356057 16.8821918,3.16941469 C16.8069974,3.08691628 16.7309183,3.00508858 16.6526276,2.92504947 C16.6428966,2.91521226 16.6329444,2.90559863 16.6232133,2.89553784 C16.0523991,2.31514249 15.4074961,1.80316047 14.6977933,1.37770116 C14.6924854,1.37434757 14.6867353,1.37121755 14.6812063,1.36808753 C14.5715109,1.30235708 14.4604885,1.23863879 14.3476968,1.17715624 C14.3162921,1.15994112 14.2840027,1.14384387 14.252598,1.1270759 C14.1654609,1.08101987 14.0785449,1.03496385 13.9896386,0.991590698 C13.9177615,0.9560426 13.8443364,0.922730233 13.7713535,0.888970719 C13.7280061,0.869072727 13.6855434,0.847386152 13.6417537,0.828158879 C13.613224,0.811614482 13.5835886,0.79931797 13.5535108,0.789704334 C13.0258227,0.561436364 12.4740282,0.379895137 11.9032139,0.248210677 C11.9003389,0.247539958 11.8972426,0.246869239 11.8945887,0.24619852 C11.8910501,0.245527801 11.8875116,0.244857082 11.8841942,0.244186364 C11.7771527,0.21959334 11.6705535,0.195447463 11.5626273,0.17465518 C11.5274629,0.163923679 11.4920773,0.159005074 11.457134,0.15721649 C10.8865408,0.0528079281 10.3179382,0.00317473573 9.75552796,0.00138615222 C9.75154707,0.00116257928 9.74756619,4.47145877e-05 9.74358531,4.47145877e-05 L9.73097918,4.47145877e-05 C9.70930549,4.47145877e-05 9.68785296,0.00160972516 9.66617926,0.00160972516 C9.53945451,0.00250401691 9.41317208,0.00563403805 9.28711081,0.0114469345 C9.24597503,0.013235518 9.2050604,0.0154712474 9.16392462,0.0179305497 C9.04715207,0.0248613108 8.93082185,0.0338042283 8.81471278,0.0449828753 C8.76052855,0.0501250529 8.70634432,0.0557143763 8.65238125,0.0617508457 C8.55462847,0.0729294926 8.45709686,0.0854495772 8.3597864,0.0993110994 C8.28702472,0.109819027 8.2144842,0.120997674 8.14216484,0.133070613 C8.06741272,0.145590698 7.99310291,0.159005074 7.91879311,0.173313742 C7.82546354,0.191199577 7.73235513,0.210203277 7.63991019,0.230771987 C7.58904336,0.242174207 7.53861886,0.254247146 7.48797319,0.266320085 C7.37496036,0.29337241 7.26283218,0.321989746 7.15136748,0.353066385 C7.12173202,0.361338584 7.09253888,0.369834355 7.06312459,0.378330127 C6.93374591,0.415666808 6.80547304,0.455462791 6.67830597,0.497941649 C6.66614216,0.501965962 6.65419951,0.506213848 6.64225687,0.510238161 C6.50115671,0.55808277 6.36160467,0.608833827 6.22360075,0.662938478 C6.22249495,0.663385624 6.22138915,0.66383277 6.22006219,0.664279915 C5.78481906,0.834866068 5.36461482,1.03608171 4.96210339,1.26569112 C4.95458395,1.26993901 4.94728566,1.27441047 4.93976622,1.27865835 C4.81613771,1.34953097 4.69427848,1.4228629 4.57396737,1.4988777 C4.55207252,1.51296279 4.53061999,1.52727146 4.50872513,1.54135655 C4.40477988,1.60842844 4.30171926,1.67661818 4.20064908,1.74771438 C4.1606191,1.77543742 4.12169491,1.8045019 4.08210725,1.83289567 C4.00094149,1.89169535 3.91977572,1.9507186 3.84060039,2.01197759 C3.78155064,2.05713932 3.72382785,2.10408964 3.6658839,2.15059281 C3.6081611,2.19731956 3.55021715,2.24382273 3.493379,2.29166734 C3.41685759,2.35650349 3.34166315,2.42312822 3.26691103,2.49020011 C3.23086193,2.52284175 3.19437051,2.55481268 3.15876373,2.58767791 C3.06764576,2.6719649 2.97873938,2.75826406 2.89093881,2.84590465 C2.87258252,2.86423763 2.85378391,2.88234704 2.83564878,2.90090359 C2.73546325,3.00218214 2.63815279,3.10591998 2.5421693,3.21189355 C2.53641913,3.21837717 2.53022665,3.22486078 2.52425533,3.23156797 C2.21330419,3.57721173 1.92579603,3.94655423 1.66438476,4.33780687 C1.66394244,4.33870116 1.66327896,4.33959545 1.66261548,4.34048975 C1.57968043,4.46457273 1.49984162,4.59089144 1.42221442,4.7192223 C1.41557962,4.73017738 1.40894481,4.74113245 1.40231001,4.7523111 C1.33308689,4.86812188 1.26607537,4.98594482 1.20149661,5.1051092 C1.18690005,5.13216152 1.17208232,5.15899027 1.15748575,5.1860426 C1.10308036,5.28888615 1.05022309,5.39329471 0.9991351,5.49859757 C0.976134447,5.54577146 0.953133794,5.59316892 0.931017781,5.64056638 C0.890545478,5.72731268 0.851621296,5.8147297 0.813581754,5.90259387 C0.783282817,5.97279577 0.75364736,6.04299767 0.725117704,6.1138703 C0.697472688,6.18228362 0.670491153,6.25136765 0.644173098,6.32089884 C0.609008638,6.41368161 0.575171139,6.5071351 0.5426606,6.6012593 C0.52496779,6.65290465 0.50749614,6.70477357 0.490687971,6.75686607 C0.45397539,6.86887611 0.41947441,6.98178044 0.386963872,7.0953555 C0.375463545,7.13537505 0.364184379,7.17517104 0.353126373,7.21519059 C0.319510034,7.33815571 0.288547616,7.46179154 0.25957564,7.58654524 C0.254710117,7.60800825 0.248296473,7.62880053 0.24343095,7.65026353 C0.239671228,7.66725507 0.237238467,7.68424662 0.233257585,7.70101459 C0.20738185,7.81973182 0.183717716,7.93911977 0.162044024,8.05917844 C0.152755299,8.11037664 0.143466574,8.16157484 0.134841329,8.21277304 C0.118475479,8.312263 0.104100071,8.41220011 0.0903881434,8.51280793 C0.0804359377,8.58770486 0.0707048922,8.66237822 0.0623008074,8.73705159 C0.0541178828,8.81172495 0.0470407587,8.88662188 0.0406271151,8.96151882 C0.0315595499,9.06279736 0.0235977854,9.16385233 0.017626462,9.26468372 C0.0147513804,9.31632907 0.0125397791,9.36819799 0.010549338,9.41984334 C0.00524149498,9.54213774 0.00192409309,9.66420856 0.00126061272,9.78560867 C0.00126061272,9.80304736 -6.63480377e-05,9.8200389 -6.63480377e-05,9.83725402 C-6.63480377e-05,9.85916416 0.00148177284,9.88062717 0.00170293297,9.90231374 C0.00236641334,10.0308682 0.0054626551,10.1587519 0.0112128184,10.2866356 C0.0129820994,10.327773 0.0154148608,10.3686869 0.017626462,10.4098243 C0.0244824259,10.528318 0.0333288309,10.6463645 0.0443868372,10.7641874 C0.0494735201,10.8185156 0.0550025233,10.8728439 0.0609738466,10.9269485 C0.0720318529,11.0262149 0.08441682,11.1252577 0.0983499079,11.2238534 C0.108744434,11.2971853 0.11958128,11.3702937 0.131523927,11.443402 C0.144130054,11.5187461 0.157399661,11.5940902 0.171553909,11.6692107 C0.18924672,11.7635585 0.20804533,11.8574591 0.228392062,11.9509126 C0.239450068,12.0025579 0.251392715,12.0539797 0.263556522,12.1051779 C0.290316897,12.2192001 0.318625393,12.3325516 0.34914549,12.4452323 C0.357328415,12.4749675 0.36595366,12.5044792 0.374357745,12.5342144 C0.411070326,12.664781 0.450215668,12.7946768 0.492236092,12.9230077 C0.496438134,12.9353042 0.500640176,12.9478243 0.504842219,12.9603444 C0.551949326,13.1025368 0.602152674,13.2436113 0.655673425,13.3828973 C0.656115745,13.3840151 0.656558065,13.385133 0.657000385,13.3862508 C0.825745561,13.8262424 1.02478967,14.251031 1.25169996,14.6577101 C1.25612317,14.6657588 1.26076753,14.6735838 1.26519073,14.6814089 C1.33529849,14.8061626 1.40761785,14.9291277 1.48281229,15.0505278 C1.49652422,15.0726615 1.51067847,15.0943481 1.52461156,15.1162582 C1.5909596,15.2215611 1.65863459,15.3257461 1.72874235,15.4281425 C1.75638737,15.4683856 1.78513819,15.507958 1.81322552,15.5479776 C1.87116948,15.6300289 1.92955575,15.711633 1.98993246,15.7918957 C2.03482797,15.8513661 2.08127159,15.9099422 2.12749406,15.9687419 C2.17371653,16.0270944 2.21949667,16.0854469 2.2670461,16.1429052 C2.33096138,16.220485 2.39686709,16.2962762 2.46321513,16.3718439 C2.49528335,16.4085098 2.52713041,16.4453994 2.55986211,16.4813946 C2.64301831,16.5735067 2.72860728,16.6631594 2.81530205,16.7521414 C2.83321602,16.770698 2.85112999,16.7894781 2.86926512,16.8078111 C2.96967182,16.9090896 3.07251128,17.0076853 3.17734118,17.104716 C3.18375482,17.1105289 3.19016846,17.1167889 3.19658211,17.1226018 C3.53871682,17.4369453 3.90407335,17.7275902 4.29110357,17.992077 C4.29198821,17.9925241 4.29265169,17.9929712 4.29353633,17.993642 C4.4162802,18.0772582 4.54123567,18.1584152 4.66818158,18.2364422 C4.67923959,18.2433729 4.68985528,18.2500801 4.70091328,18.2567873 C4.81569539,18.3269892 4.93202561,18.3945082 5.05012512,18.4600151 C5.07666434,18.4747709 5.10320355,18.4895267 5.12996393,18.5042826 C5.23191875,18.5595051 5.33497936,18.6127154 5.43936694,18.6645844 C5.48581057,18.6878359 5.53247536,18.7106404 5.57958246,18.7332212 C5.66539259,18.7741351 5.7518662,18.8134839 5.83922445,18.8519385 C5.90822641,18.882568 5.97767069,18.9125267 6.04755729,18.9413677 C6.11545345,18.9695378 6.18379193,18.9968137 6.25257273,19.0231953 C6.34457534,19.0587434 6.43702027,19.0929501 6.53012868,19.1258153 C6.58121667,19.1437012 6.63230466,19.1613634 6.68361381,19.178355 C6.79463619,19.2154681 6.90632206,19.2503455 7.01911372,19.2834342 C7.05825906,19.29506 7.09762557,19.3062387 7.13721323,19.3171938 C7.2588513,19.3514004 7.38137401,19.3827006 7.50500252,19.4122123 C7.52623389,19.4171309 7.54658062,19.4233909 7.56781199,19.4280859 C7.584399,19.4321103 7.60098601,19.4347931 7.61779418,19.4383703 C7.73523021,19.4647519 7.85355087,19.4886742 7.97253502,19.5108079 C8.02295953,19.520198 8.07338404,19.5295881 8.12380855,19.5380838 C8.22244596,19.5548518 8.32174686,19.569384 8.42126892,19.583022 C8.4951364,19.5933063 8.56878272,19.6031436 8.64242904,19.6114158 C8.71629653,19.6199115 8.79060633,19.6268423 8.86491613,19.6333259 C8.96510167,19.6424924 9.06506604,19.6507646 9.1645881,19.6565775 C9.21567609,19.6597075 9.26698524,19.6617197 9.31829439,19.6639554 C9.43904782,19.6693211 9.55958008,19.6724512 9.67989119,19.6731219 C9.69692052,19.6731219 9.71394985,19.6744633 9.73097918,19.6744633 C9.75265287,19.6744633 9.77410541,19.6728983 9.7957791,19.6726747 C9.92272501,19.672004 10.0490074,19.6690976 10.1748476,19.6630611 C10.2162045,19.6610489 10.2571191,19.6590368 10.2980337,19.6565775 C10.4148063,19.6496467 10.5311365,19.6409274 10.6474667,19.6297487 C10.701651,19.624383 10.755614,19.6187937 10.8095771,19.6127572 C10.9075511,19.6015785 11.0048615,19.5890585 11.102172,19.5751969 C11.1751548,19.564689 11.2476953,19.5535104 11.3200147,19.5414374 C11.3945456,19.5289173 11.4690766,19.5152794 11.5431653,19.5011943 C11.636716,19.4830849 11.7296032,19.4643048 11.8222693,19.443736 C11.8731362,19.4323338 11.9233395,19.4202609 11.9739852,19.4081879 C12.0872192,19.3811356 12.1993473,19.3525183 12.310812,19.3214416 C12.3402263,19.3131695 12.3694195,19.3046737 12.3988338,19.2961779 C12.5282125,19.2588412 12.6567065,19.2192688 12.7838736,19.1765664 C12.7958162,19.1725421 12.8075377,19.1682942 12.8194803,19.1644934 C12.9608017,19.1166488 13.1005749,19.0656742 13.2385788,19.0115696 L13.241675,19.0102281 C13.6771393,18.839642 14.0973435,18.6384263 14.5002973,18.4088169 C14.5073744,18.404569 14.5146727,18.4003211 14.5217498,18.3960733 C14.6455995,18.3249771 14.767901,18.2518687 14.8882122,18.1754068 C14.9098858,18.1615452 14.9313384,18.1474601 14.9530121,18.1333751 C15.0569573,18.0663032 15.1602391,17.9976663 15.2617516,17.9267937 C15.3013393,17.8990706 15.3402634,17.8702297 15.3794088,17.8420595 C15.4610169,17.7830363 15.5421826,17.7237894 15.6218003,17.6623069 C15.6806289,17.6173687 15.7379094,17.570642 15.7956321,17.5243624 C15.8537973,17.4774121 15.9119624,17.4306853 15.9688005,17.3826171 C16.0453219,17.3180045 16.1200741,17.2516034 16.1948262,17.1845315 C16.2310964,17.1521134 16.267809,17.1196953 16.303637,17.0866066 C16.3943126,17.0027667 16.483219,16.9164675 16.5707984,16.8290505 C16.5893758,16.8102704 16.6081744,16.792161 16.6267519,16.7733809 C16.7264951,16.6723259 16.8238056,16.5688116 16.9193467,16.4632852 C16.9257604,16.4561309 16.9319529,16.4496473 16.9381454,16.4427165 C17.2486542,16.0972963 17.5359412,15.7281774 17.7973524,15.3371483" id="Fill-3" fill="#BB9A64" mask="url(#mask-2)"></path>
                        </g>
                    </g>
                </g>
            </g>
        </g>
    </g>
</svg>