<?xml version="1.0" encoding="UTF-8"?>
<svg width="40px" height="45px" viewBox="0 0 40 45" version="1.1" xmlns="http://www.w3.org/2000/svg" xmlns:xlink="http://www.w3.org/1999/xlink">
    <!-- Generator: Sketch 44.1 (41455) - http://www.bohemiancoding.com/sketch -->
    <title>icon-feracheval</title>
    <desc>Created with Sketch.</desc>
    <defs>
        <polygon id="path-1" points="39.6596208 0.111608392 0 0.111608392 0 44.0853147 39.6596208 44.0853147 39.6596208 0.111608392"></polygon>
    </defs>
    <g id="Page-1" stroke="none" stroke-width="1" fill="none" fill-rule="evenodd">
        <g id="Home-page" transform="translate(-205.000000, -2135.000000)">
            <g id="Le-championnat-&amp;-vous" transform="translate(92.000000, 1986.000000)">
                <g id="Engagez-votre-cheval" transform="translate(0.000000, 101.000000)">
                    <g id="icon-feracheval" transform="translate(113.000000, 48.000000)">
                        <g>
                            <g id="Group-3" transform="translate(0.000000, 0.446434)">
                                <mask id="mask-2" fill="white">
                                    <use xlink:href="#path-1"></use>
                                </mask>
                                <g id="Clip-2"></g>
                                <path d="M32.3275696,40.6811471 C35.6603201,33.9846436 37.9932456,25.5024059 37.9932456,20.0335947 C37.9932456,9.98883944 29.8280066,1.78562266 19.8297549,1.78562266 C9.83150313,1.78562266 1.6662642,9.98883944 1.6662642,20.0335947 C1.6662642,25.5582101 3.99918961,34.0410059 7.38748603,40.7927555 C7.44303188,40.8485597 7.44303188,40.9043639 7.49857772,40.9601681 C7.99849031,41.8535933 8.99831548,42.4668814 9.99814066,42.4668814 C11.5534243,42.4668814 12.8309787,41.1833849 12.8309787,39.6214255 C12.8309787,39.1186297 12.6643411,38.6163919 12.3866119,38.1699583 C12.3310661,38.1141541 12.3310661,38.0583499 12.3310661,38.0025457 C9.6648656,33.3707975 7.66521525,26.5626856 7.66521525,22.0425457 C7.66521525,14.7321961 13.1087079,8.76114713 19.8297549,8.76114713 C26.5513573,8.76114713 31.9942945,14.7321961 31.9942945,22.0425457 C31.9942945,26.5626856 29.9946442,33.4266017 27.3284437,38.0583499 C27.3284437,38.1141541 27.2728978,38.1141541 27.2728978,38.1699583 C26.9951686,38.6163919 26.8290866,39.1186297 26.8290866,39.6214255 C26.8290866,41.1833849 28.1060855,42.4668814 29.6613691,42.4668814 C30.7172956,42.4668814 31.7165653,41.8535933 32.160932,40.9043639 C32.2720237,40.7927555 32.2720237,40.7375094 32.3275696,40.6811471 M19.8297549,0.111496783 C30.772286,0.111496783 39.6596208,9.04016811 39.6596208,20.0335947 C39.6596208,25.837231 37.2156037,34.7100982 33.7162156,41.6298185 C33.6606698,41.6856227 33.6606698,41.7414269 33.605124,41.797231 C32.8274821,43.2486982 31.3277444,44.0857611 29.7169149,44.0857611 C27.217352,44.0857611 25.2177017,42.076252 25.2177017,39.5650632 C25.2177017,38.7843625 25.4404405,38.0583499 25.8287059,37.3328954 C25.8287059,37.2770912 25.8842518,37.2770912 25.8842518,37.221287 C28.8281814,32.1989094 30.3834651,25.6140143 30.3834651,21.9309373 C30.3834651,15.5134548 25.6620684,10.3236646 19.8853007,10.3236646 C14.108533,10.3236646 9.38713638,15.5134548 9.38713638,21.9309373 C9.38713638,25.6140143 10.9979658,32.1989094 13.8863497,37.221287 C13.9418955,37.2770912 13.9418955,37.3328954 13.9418955,37.3892576 C14.3307164,38.0583499 14.4973539,38.7843625 14.4973539,39.5650632 C14.4973539,42.076252 12.4977036,44.0857611 9.99814066,44.0857611 C8.44285705,44.0857611 6.94311929,43.2486982 6.16547749,41.8535933 C6.10993164,41.797231 6.0543858,41.7414269 6.0543858,41.6856227 C2.49945185,34.7659024 -0.000111091686,25.837231 -0.000111091686,20.0335947 C-0.000111091686,9.04016811 8.94276964,0.111496783 19.8297549,0.111496783" id="Fill-1" fill="#BB9A64" mask="url(#mask-2)"></path>
                            </g>
                            <path d="M33.27196,27.4555527 C33.27196,26.8975108 33.7718726,26.395273 34.327331,26.395273 C34.9383353,26.395273 35.382702,26.8417066 35.382702,27.4555527 C35.382702,28.0135947 34.9383353,28.5158324 34.327331,28.5158324 C33.7163267,28.5158324 33.27196,28.0135947 33.27196,27.4555527" id="Fill-4" fill="#BB9A64"></path>
                            <path d="M33.7720948,20.8149092 C33.7720948,20.2010631 34.2714519,19.7546295 34.8269103,19.7546295 C35.43847,19.7546295 35.8828368,20.2010631 35.8828368,20.8149092 C35.8828368,21.3729512 35.3823687,21.875189 34.8269103,21.875189 C34.2714519,21.875189 33.7720948,21.4287554 33.7720948,20.8149092" id="Fill-6" fill="#BB9A64"></path>
                            <path d="M32.7165016,14.8996087 C32.7165016,14.3415667 33.2164141,13.839329 33.7718726,13.839329 C34.3828768,13.839329 34.8272436,14.2857625 34.8272436,14.8996087 C34.8272436,15.4576506 34.3828768,15.9598884 33.7718726,15.9598884 C33.2164141,15.9598884 32.7165016,15.4576506 32.7165016,14.8996087" id="Fill-8" fill="#BB9A64"></path>
                            <path d="M29.3284273,9.76579007 C29.3284273,9.20774811 29.7727941,8.70551035 30.3832429,8.70551035 C30.9387013,8.70551035 31.4391693,9.15194392 31.4391693,9.76579007 C31.4391693,10.323832 30.9387013,10.8260698 30.3832429,10.8260698 C29.8277844,10.8260698 29.3284273,10.323832 29.3284273,9.76579007" id="Fill-10" fill="#BB9A64"></path>
                            <path d="M6.55435393,27.4555527 C6.55435393,26.8975108 6.05444135,26.395273 5.49898292,26.395273 C4.88797864,26.395273 4.4436119,26.8417066 4.4436119,27.4555527 C4.4436119,28.0135947 4.94352449,28.5158324 5.49898292,28.5158324 C6.10998719,28.5158324 6.55435393,28.0135947 6.55435393,27.4555527" id="Fill-12" fill="#BB9A64"></path>
                            <path d="M6.05449689,20.8149092 C6.05449689,20.2010631 5.61013015,19.7546295 4.99912587,19.7546295 C4.44366744,19.7546295 3.94375486,20.2010631 3.94375486,20.8149092 C3.94375486,21.3729512 4.44366744,21.875189 4.99912587,21.875189 C5.61013015,21.875189 6.05449689,21.4287554 6.05449689,20.8149092" id="Fill-14" fill="#BB9A64"></path>
                            <path d="M7.10981236,14.8996087 C7.10981236,14.3415667 6.60989978,13.839329 6.05444135,13.839329 C5.44343707,13.839329 4.99907033,14.2857625 4.99907033,14.8996087 C4.99907033,15.4576506 5.44343707,15.9598884 6.05444135,15.9598884 C6.66544562,15.9598884 7.10981236,15.4576506 7.10981236,14.8996087" id="Fill-16" fill="#BB9A64"></path>
                            <path d="M10.4981643,9.76579007 C10.4981643,9.20774811 10.0537976,8.70551035 9.44279332,8.70551035 C8.88733489,8.70551035 8.3874223,9.15194392 8.3874223,9.76579007 C8.3874223,10.323832 8.88733489,10.8260698 9.44279332,10.8260698 C10.0537976,10.8260698 10.4981643,10.323832 10.4981643,9.76579007" id="Fill-18" fill="#BB9A64"></path>
                        </g>
                    </g>
                </g>
            </g>
        </g>
    </g>
</svg>