<?xml version="1.0" encoding="UTF-8"?>
<svg width="66px" height="45px" viewBox="0 0 66 45" version="1.1" xmlns="http://www.w3.org/2000/svg" xmlns:xlink="http://www.w3.org/1999/xlink">
    <!-- Generator: Sketch 44.1 (41455) - http://www.bohemiancoding.com/sketch -->
    <title>icon-map</title>
    <desc>Created with Sketch.</desc>
    <defs>
        <polygon id="path-1" points="65.6625823 0.477523581 65.6625823 29.3252128 0.000100642556 29.3252128 0.000100642556 0.477523581 65.6625823 0.477523581"></polygon>
    </defs>
    <g id="Page-1" stroke="none" stroke-width="1" fill="none" fill-rule="evenodd">
        <g id="Home-page" transform="translate(-804.000000, -2135.000000)">
            <g id="Le-championnat-&amp;-vous" transform="translate(92.000000, 1986.000000)">
                <g id="Accès" transform="translate(612.000000, 101.000000)">
                    <g id="icon-map" transform="translate(100.000000, 48.000000)">
                        <g>
                            <path d="M28.953541,33.3218301 C28.8854637,33.3907102 28.6131546,33.5271066 28.5450773,33.5271066 C27.7281499,33.8680974 26.8431452,34.1402081 25.821986,34.2766044 C25.6177541,34.2766044 24.9369813,34.3448026 24.868904,34.3448026 C24.392363,34.3448026 23.9838993,34.7546736 24.0519766,35.2320608 C24.0519766,35.708766 24.4604403,36.0497568 24.9369813,36.0497568 C25.2773677,36.0497568 25.8900632,35.9815587 26.0942951,35.9815587 C27.3196862,35.8451623 28.3408454,35.5041715 29.2939274,35.0956645 C29.3620047,35.0956645 29.7023911,34.8910699 29.7704684,34.8221898 C30.1789321,34.6175953 30.383164,34.0726919 30.1108548,33.6628209 C29.906623,33.2536319 29.3620047,33.1172356 28.953541,33.3218301" id="Fill-1" fill="#BB9A64"></path>
                            <path d="M33.8552416,27.2526022 C33.7871643,27.3208004 33.5829324,27.6617912 33.5829324,27.6617912 C33.3106233,28.0709802 33.1063914,28.4801692 32.8340823,28.8211601 C32.4256186,29.4349436 32.0852322,30.1169253 31.6086912,30.7307088 C31.6086912,30.7307088 31.4044594,31.0716997 31.3363821,31.0716997 C31.0640729,31.4808887 31.1321502,32.026474 31.4725366,32.2985847 C31.6086912,32.4356631 31.8129231,32.5038612 32.0171549,32.5038612 C32.289464,32.5038612 32.5617732,32.3674649 32.6979277,32.1628704 C32.766005,32.0946722 32.9702369,31.7536814 33.0383142,31.7536814 C33.5148552,31.0716997 33.9233189,30.389718 34.3317826,29.7077363 C34.5360144,29.2985473 34.8083235,28.9575564 35.0125554,28.5483674 C35.0125554,28.5483674 35.2167872,28.2073766 35.2848645,28.1391784 C35.5571737,27.7299894 35.4210191,27.184404 35.0806327,26.9116114 C34.672169,26.775215 34.1275507,26.9116114 33.8552416,27.2526022" id="Fill-3" fill="#BB9A64"></path>
                            <path d="M17.2444525,32.9129138 C18.1294571,34.0040846 19.2186937,34.8906608 20.4440848,35.4362461 C20.5121621,35.4362461 20.9887031,35.7090388 21.2610122,35.7090388 C21.6013986,35.7090388 21.941785,35.5044443 22.0779396,35.0952553 C22.2140942,34.6178681 22.0098623,34.1404809 21.5333213,34.0040846 C21.465244,34.0040846 21.1929349,33.8676882 21.1248576,33.8676882 C20.1036984,33.4584992 19.286771,32.7765175 18.6059981,31.8899413 C18.6059981,31.8899413 18.4017663,31.6171486 18.333689,31.5489505 C18.0613799,31.1397614 17.5167616,31.0715633 17.1082979,31.344356 C16.6998342,31.6171486 16.6317569,32.162734 16.904066,32.571923 C16.9721433,32.5037248 17.1763752,32.8447157 17.2444525,32.9129138" id="Fill-5" fill="#BB9A64"></path>
                            <path d="M36.7146236,24.4564091 C36.3054792,24.7292017 36.1700054,25.2065889 36.3742372,25.6839761 C36.5103918,25.9567688 36.8507782,26.0931651 37.1230873,26.0931651 C37.2592419,26.0931651 37.3953965,26.024967 37.531551,25.9567688 C37.5996283,25.8885706 37.8719375,25.7521743 37.8719375,25.7521743 C38.4165557,25.4793816 39.0285705,25.3429853 39.6419468,25.2065889 C40.1184878,25.1383908 40.5950288,25.0701926 41.070889,25.0701926 L41.5481108,25.0701926 C42.0246517,25.0701926 42.4324347,24.6610036 42.4324347,24.1836164 C42.4324347,23.7062292 42.0246517,23.2970402 41.5481108,23.2970402 L41.0034925,23.2970402 C40.4588742,23.2970402 39.914256,23.3652384 39.3689569,23.4334365 C38.5527103,23.5698329 37.7357829,23.7744274 37.05501,24.1154182 C37.1911646,24.2518146 36.8507782,24.3882109 36.7146236,24.4564091" id="Fill-7" fill="#BB9A64"></path>
                            <path d="M49.0363396,27.3205276 C48.6959532,26.6385459 47.8109485,25.3427807 46.1090165,24.3880063 C46.0416199,24.3880063 45.7012335,24.1834118 45.6324755,24.1152136 C45.2240118,23.9106191 44.6800743,24.1152136 44.4751616,24.5244026 C44.2709298,24.9335917 44.4751616,25.479177 44.8836253,25.6837715 C44.9517026,25.6837715 45.2240118,25.888366 45.292089,25.888366 C46.5855574,26.5703477 47.2663303,27.5251221 47.5386394,28.0707074 C47.5386394,28.1389056 47.674794,28.3435001 47.674794,28.3435001 C47.8109485,28.684491 48.151335,28.8890855 48.4917214,28.8890855 C48.5597987,28.8890855 48.6959532,28.8890855 48.7647113,28.8208873 C49.2405715,28.684491 49.4454841,28.1389056 49.3086488,27.7297166 C49.2405715,27.7979148 49.0363396,27.3887257 49.0363396,27.3205276" id="Fill-9" fill="#BB9A64"></path>
                            <path d="M51.1471439,29.7757299 C50.8067575,29.434739 50.1940619,29.5029372 49.921072,29.9121262 L49.0360673,31.0032969 L48.0836661,30.1167207 C47.7432797,29.7757299 47.1979807,29.843928 46.8575943,30.1849189 C46.5172078,30.5259097 46.5859659,31.0714951 46.9263523,31.4124859 L47.9475116,32.3672603 L46.9937488,33.5266292 C46.6533624,33.86762 46.7221205,34.4814035 47.1305842,34.7541962 C47.2667387,34.8905926 47.4709706,34.9587907 47.6745217,34.9587907 C47.9475116,34.9587907 48.1517434,34.8223944 48.3552945,34.6177999 L49.2402992,33.5266292 L50.3302165,34.5496017 C50.4663711,34.685998 50.7379994,34.7541962 50.9422313,34.7541962 C51.2152212,34.7541962 51.4187723,34.685998 51.6230041,34.4814035 C51.9633905,34.1404127 51.895994,33.5948273 51.5556076,33.2538365 L50.397613,32.230864 L51.3513757,31.0714951 C51.5556076,30.6623061 51.4875303,30.1167207 51.1471439,29.7757299" id="Fill-11" fill="#BB9A64"></path>
                            <path d="M17.9933707,28.7527573 C17.9933707,28.0025775 17.3806751,27.3887939 16.631825,27.3887939 L15.8148976,27.3887939 C15.0660475,27.3887939 14.4533519,28.0025775 14.4533519,28.7527573 C14.4533519,29.5029372 15.0660475,30.1167207 15.8148976,30.1167207 L16.631825,30.1167207 C17.3806751,30.1849189 17.9933707,29.5711354 17.9933707,28.7527573" id="Fill-13" fill="#BB9A64"></path>
                            <g transform="translate(0.000000, 15.351885)">
                                <mask id="mask-2" fill="white">
                                    <use xlink:href="#path-1"></use>
                                </mask>
                                <g id="Clip-16"></g>
                                <path d="M0.137039572,29.0627862 C0.224859268,29.2060024 0.459045123,29.3253492 0.701400252,29.3253492 L64.8982786,29.3253492 C65.1406338,29.3253492 65.3748196,29.2060024 65.4810202,29.0280051 C65.7267792,28.6583711 65.6770828,28.4503666 65.5987939,28.2921469 L65.5906246,28.2764613 L53.1331625,0.928313479 C53.0017733,0.621421718 52.7764375,0.477523581 52.4401357,0.477523581 L39.3434279,0.477523581 C39.1793617,0.800782903 39.0078069,1.13222601 38.8355714,1.46366911 C38.7463902,1.63552849 38.6572089,1.80738788 38.5687084,1.9778833 L51.9506601,1.9778833 L63.7879381,27.8249894 L1.87981803,27.8249894 L13.7170961,1.9778833 L27.0282473,1.9778833 L26.258974,0.477523581 L13.2276204,0.477523581 C12.9791383,0.477523581 12.6700675,0.613237938 12.5400399,0.917401772 L0.0771315623,28.2764613 C-0.00932658785,28.4496847 -0.0617460962,28.6631449 0.137039572,29.0627862" id="Fill-15" fill="#BB9A64" mask="url(#mask-2)"></path>
                            </g>
                            <path d="M32.8340823,10.7824715 C30.5255816,10.7824715 28.6473294,8.90088405 28.6473294,6.58828414 C28.6473294,4.27568422 30.5255816,2.39409673 32.8340823,2.39409673 C35.1432638,2.39409673 37.0208353,4.27568422 37.0208353,6.58828414 C37.0208353,8.90088405 35.1432638,10.7824715 32.8340823,10.7824715 M29.8665935,0.70141817 C28.3191969,1.49183495 27.1639254,2.86057221 26.6138609,4.55597869 C26.0774119,6.21046628 26.2026741,8.01021596 26.9576512,9.49284416 C28.6282677,12.7731761 32.2009636,19.7989515 32.3323527,20.0567406 C32.4562534,20.2797486 32.676143,20.3418089 32.8463362,20.3472648 C32.9341559,20.3438549 33.1513225,20.3118017 33.2541192,20.0847018 C33.3079002,19.9776307 37.6321693,11.5169658 38.6403938,9.49693605 C39.5907527,7.65626747 39.5900719,5.51348099 38.6403938,3.61211603 C36.9949659,0.37884083 33.0587374,-0.927836092 29.8665935,0.70141817" id="Fill-18" fill="#BB9A64"></path>
                        </g>
                    </g>
                </g>
            </g>
        </g>
    </g>
</svg>