<?xml version="1.0" encoding="UTF-8"?>
<svg width="553px" height="758px" viewBox="0 0 553 758" version="1.1" xmlns="http://www.w3.org/2000/svg" xmlns:xlink="http://www.w3.org/1999/xlink">
    <!-- Generator: Sketch 44.1 (41455) - http://www.bohemiancoding.com/sketch -->
    <title>Icon cmca</title>
    <desc>Created with Sketch.</desc>
    <defs>
        <polygon id="path-1" points="308.345912 0 308.345912 757.076736 0 757.076736 0 3.26679749e-13 308.345912 3.26679749e-13"></polygon>
        <polygon id="path-3" points="0 548.419001 0 8.17083176e-14 237.972671 0 237.972671 548.419001 7.5797161e-16 548.419001"></polygon>
    </defs>
    <g id="Page-1" stroke="none" stroke-width="1" fill="none" fill-rule="evenodd" opacity="0.0696603264">
        <g id="Home-page" transform="translate(-398.000000, -619.000000)">
            <g id="Un-univers-unique" transform="translate(0.000000, 619.000000)">
                <g id="Icon-cmca" transform="translate(396.000000, 0.000000)">
                    <g transform="translate(277.500000, 379.000000) scale(-1, 1) translate(-277.500000, -379.000000) ">
                        <g id="Group-3" transform="translate(244.454417, 0.000000)">
                            <mask id="mask-2" fill="white">
                                <use xlink:href="#path-1"></use>
                            </mask>
                            <g id="Clip-2"></g>
                            <path d="M0.235952515,0 C0.235952515,0 3.61404779,416.589327 308.345912,757.076736 C308.345912,757.076736 -9.87527465,490.599334 0.235952515,0" id="Fill-1" fill="#000000" mask="url(#mask-2)"></path>
                        </g>
                        <g id="Group-6" transform="translate(0.000000, 204.041413)">
                            <mask id="mask-4" fill="white">
                                <use xlink:href="#path-3"></use>
                            </mask>
                            <g id="Clip-5"></g>
                            <path d="M237.972663,0 C237.972663,0 238.45609,196.387153 0,548.419001 C0,548.419001 235.693651,304.355239 237.972663,0" id="Fill-4" fill="#000000" mask="url(#mask-4)"></path>
                        </g>
                        <path d="M321.014585,699.818565 C213.004284,643.78767 130.449521,735.081561 115.745463,755.230207 C156.919132,689.371544 238.298492,629.728342 325.013259,689.176594 C320.496025,699.25665 321.394862,699.187844 321.014585,699.818565" id="Fill-7" fill="#000000"></path>
                        <path d="M304.936741,633.521171 C273.638631,627.686489 249.692581,614.581426 228.823333,598.478622 C213.324085,603.084345 201.454772,585.201274 186.093807,589.657685 C183.80061,616.591405 215.421381,617.154199 212.459815,640.274701 C197.617412,635.691949 167.978701,600.557514 171.608636,583.800032 C175.376855,566.525697 198.758249,574.657498 212.091059,565.216339 L216.262604,563.792125 C220.883569,529.220485 245.025521,517.183582 248.874405,481.72755 C237.373848,489.227644 224.202368,494.740729 216.124321,506.111468 C191.797992,496.762194 207.447047,485.644138 218.463612,471.516857 C230.621015,455.896448 238.560779,446.076264 246.903868,431.236876 C252.400628,430.318028 248.690027,438.415372 251.732259,439.942957 C254.958868,437.990405 255.396765,432.76446 259.072795,431.317275 C259.176507,440.29901 259.084318,441.068545 257.782151,450.084737 C263.670713,457.148378 274.479854,463.178315 279.319768,471.803997 C292.537342,495.13124 283.710261,535.192994 297.895819,557.050081 C313.648586,581.135374 343.782812,578.160604 364.006738,600.603457 C431.811627,575.495946 397.701757,684.195616 437.054867,700.58556 C434.185489,701.355094 428.285404,698.678951 427.501799,701.883432 C427.801412,706.179044 439.520918,711.657673 433.471026,713.483883 C421.901327,711.450932 411.322658,701.309152 404.662014,698.908663 C405.73371,704.192036 410.250963,705.995275 412.002551,710.474657 C394.452101,701.217267 380.024548,697.025025 379.379226,672.847848 C378.68781,646.362066 401.055126,607.758982 366.196223,607.862353 C369.296072,633.992081 349.567661,651.013732 352.333326,672.721507 C353.105408,678.785901 359.789098,683.494994 359.316631,690.030298 C358.141223,703.537357 340.832769,710.474657 332.754722,721.638655 C326.186268,730.712275 322.083864,739.682524 318.638307,750.41007 C314.144101,749.514193 305.962342,752.224794 303.853522,748.916943 C307.057084,745.517206 310.156934,742.737692 312.634509,738.855561 C318.027556,730.608904 340.072211,700.195049 340.245065,691.351141 C340.383348,682.610604 325.702276,666.5078 320.827792,658.088859 C315.918736,649.566547 313.418114,642.342108 310.249123,634.589332 L304.936741,633.521171 Z" id="Fill-9" fill="#000000"></path>
                        <path d="M350.014279,717.465381 L358.719962,709.990256 C376.65228,722.98494 397.339853,742.320751 412.053847,758 C412.053847,758 368.91904,727.312644 350.014279,717.465381" id="Fill-11" fill="#000000"></path>
                    </g>
                </g>
            </g>
        </g>
    </g>
</svg>