<?xml version="1.0" encoding="UTF-8"?>
<svg width="45px" height="60px" viewBox="0 0 45 60" version="1.1" xmlns="http://www.w3.org/2000/svg" xmlns:xlink="http://www.w3.org/1999/xlink">
    <!-- Generator: Sketch 44.1 (41455) - http://www.bohemiancoding.com/sketch -->
    <title>icon-bed</title>
    <desc>Created with Sketch.</desc>
    <defs></defs>
    <g id="Page-1" stroke="none" stroke-width="1" fill="none" fill-rule="evenodd">
        <g id="Home-page" transform="translate(-1120.000000, -2128.000000)" fill="#BB9A64">
            <g id="Le-championnat-&amp;-vous" transform="translate(92.000000, 1986.000000)">
                <g id="Hébergement" transform="translate(919.000000, 101.000000)">
                    <g id="icon-bed" transform="translate(109.000000, 41.000000)">
                        <g>
                            <path d="M2.74472872,50.7030095 L40.3027074,50.7030095 L40.3027074,46.5023114 L2.74472872,46.5023114 L2.74472872,50.7030095 Z M5.11387766,23.4684835 C8.11015426,20.2479483 13.823984,18.567669 21.5585585,18.4976574 C29.293133,18.4976574 35.0069628,20.2479483 38.0032394,23.4684835 C40.4420691,26.058914 40.3027074,28.7893678 40.3027074,28.929391 L40.3027074,37.4007989 C39.3968564,37.190764 38.5606862,36.980729 37.6548351,36.7706941 L37.6548351,31.5198215 C37.6548351,30.1896005 36.5406383,29.0694143 35.2160053,29.0694143 L25.1819628,29.0694143 C23.8580266,29.0694143 22.743133,30.1896005 22.743133,31.5198215 L22.743133,34.9503916 L20.373984,34.9503916 L20.373984,31.5898332 C20.373984,30.2596121 19.2590904,29.1394259 17.9351543,29.1394259 L7.83143085,29.1394259 C6.50749468,29.1394259 5.39260106,30.2596121 5.39260106,31.5898332 L5.39260106,36.7006825 C4.2080266,36.980729 3.30217553,37.2607756 2.74472872,37.4007989 L2.74472872,28.929391 C2.74472872,28.7893678 2.60536702,26.1289256 5.11387766,23.4684835 L5.11387766,23.4684835 Z M36.3308989,36.4906476 C31.9410053,35.5804963 27.899516,35.1604265 24.13675,34.9503916 L24.13675,31.5198215 C24.13675,30.9597284 24.624516,30.469647 25.1819628,30.469647 L35.2160053,30.469647 C35.7734521,30.469647 36.2612181,30.9597284 36.2612181,31.5198215 L36.2612181,36.4906476 L36.3308989,36.4906476 Z M18.980367,34.9503916 C13.8936649,35.0904149 9.71281383,35.7205196 6.78621809,36.3506243 L6.78621809,31.5198215 C6.78621809,30.9597284 7.27398404,30.469647 7.83143085,30.469647 L17.8654734,30.469647 C18.4229202,30.469647 18.9106862,30.9597284 18.9106862,31.5198215 L18.9106862,34.9503916 L18.980367,34.9503916 Z M2.74472872,38.8710432 C4.7654734,38.1709268 20.0255798,33.4801473 40.3027074,38.8710432 L40.3027074,45.0320671 L2.74472872,45.0320671 L2.74472872,38.8710432 Z M39.0484521,22.5583322 C35.7037713,18.9877388 29.8505798,17.1674363 21.6282394,17.1674363 L21.4888777,17.1674363 C13.2665372,17.1674363 7.34366489,18.9877388 4.06866489,22.5583322 C1.21175,25.6388442 1.42079255,28.8593794 1.42079255,28.929391 L1.42079255,58.7543475 C1.42079255,59.1744173 1.69951596,59.4544639 2.11760106,59.4544639 C2.53568617,59.4544639 2.81440957,59.1744173 2.81440957,58.7543475 L2.81440957,52.1032422 L40.3730851,52.1032422 L40.3730851,58.7543475 C40.3730851,59.1744173 40.6511117,59.4544639 41.0698936,59.4544639 C41.4872819,59.4544639 41.7667021,59.1744173 41.7667021,58.7543475 L41.7667021,28.9994027 C41.7667021,28.8593794 41.905367,25.6388442 39.0484521,22.5583322 L39.0484521,22.5583322 Z" id="Fill-1"></path>
                            <path d="M2.7447984,3.36062849 C2.95384096,3.29061686 3.09320266,3.22060522 3.16288351,3.08058195 L3.72033032,2.1704307 L4.27777713,3.08058195 C4.34745798,3.22060522 4.55650053,3.36062849 4.69586223,3.36062849 L5.741075,3.64067503 L5.04426649,4.48081465 C4.90490479,4.62083792 4.90490479,4.83087283 4.90490479,4.9708961 L4.97458564,6.02107062 L3.99905372,5.60100081 C3.92937287,5.60100081 3.85969202,5.53098918 3.72033032,5.53098918 C3.58096862,5.53098918 3.51128777,5.53098918 3.44160691,5.60100081 L2.466075,6.02107062 L2.53575585,4.9708961 C2.53575585,4.76086119 2.466075,4.62083792 2.39639415,4.48081465 L1.69958564,3.64067503 L2.7447984,3.36062849 Z M1.21181968,5.11091937 L1.07245798,7.00123351 C1.07245798,7.21126842 1.14213883,7.49131496 1.35118138,7.63133823 C1.49054309,7.70134986 1.62990479,7.7713615 1.76926649,7.7713615 C1.83894734,7.7713615 1.97830904,7.7713615 2.04798989,7.70134986 L3.79001117,7.00123351 L5.53203245,7.70134986 C5.741075,7.7713615 6.0197984,7.7713615 6.22884096,7.63133823 C6.43788351,7.49131496 6.50756436,7.28128005 6.50756436,7.00123351 L6.36820266,5.11091937 L7.62245798,3.64067503 C7.76181968,3.43064013 7.83150053,3.22060522 7.76181968,2.94055868 C7.69213883,2.73052378 7.48309628,2.52048887 7.27405372,2.45047724 L5.4623516,1.96039579 L4.48681968,0.350128187 C4.20809628,-0.0699416234 3.58096862,-0.0699416234 3.30224521,0.350128187 L2.3267133,1.96039579 L0.51501117,2.45047724 C0.305968617,2.52048887 0.0969260638,2.66051214 0.0272452128,2.94055868 C-0.0424356383,3.15059359 0.0272452128,3.43064013 0.166606915,3.64067503 L1.21181968,5.11091937 Z" id="Fill-3"></path>
                            <path d="M12.0125606,3.36062849 C12.2216032,3.29061686 12.3609649,3.22060522 12.4306457,3.08058195 L12.9880926,2.1704307 L13.5455394,3.08058195 C13.6152202,3.22060522 13.8242628,3.36062849 13.9636245,3.36062849 L15.0088372,3.64067503 L14.3120287,4.48081465 C14.172667,4.62083792 14.172667,4.83087283 14.172667,4.9708961 L14.2423479,6.02107062 L13.266816,5.60100081 C13.1274543,5.53098918 12.9184117,5.53098918 12.7093691,5.60100081 L11.7338372,6.02107062 L11.8035181,4.9708961 C11.8035181,4.76086119 11.7338372,4.62083792 11.6641564,4.48081465 L10.9673479,3.64067503 L12.0125606,3.36062849 Z M10.4099011,5.11091937 L10.2705394,7.00123351 C10.2705394,7.21126842 10.3402202,7.49131496 10.5492628,7.63133823 C10.7583053,7.7713615 10.9673479,7.7713615 11.2460713,7.70134986 L12.9880926,7.00123351 L14.7301138,7.70134986 C14.7997947,7.70134986 14.8694755,7.7713615 15.0088372,7.7713615 C15.1481989,7.7713615 15.2875606,7.70134986 15.4269223,7.63133823 C15.6359649,7.49131496 15.7056457,7.28128005 15.7056457,7.00123351 L15.566284,5.11091937 L16.8205394,3.64067503 C16.9599011,3.43064013 17.0295819,3.22060522 16.9599011,2.94055868 C16.8902202,2.73052378 16.6811777,2.52048887 16.4721351,2.45047724 L14.660433,1.96039579 L13.6849011,0.350128187 C13.4061777,-0.0699416234 12.77905,-0.0699416234 12.5003266,0.350128187 L11.5247947,1.96039579 L9.71309255,2.45047724 C9.50405,2.52048887 9.29500745,2.66051214 9.2253266,2.94055868 C9.15564574,3.15059359 9.2253266,3.43064013 9.3646883,3.64067503 L10.4099011,5.11091937 Z" id="Fill-4"></path>
                            <path d="M21.2102239,3.36062849 C21.4192665,3.29061686 21.5586282,3.22060522 21.628309,3.08058195 L22.1857559,2.1704307 L22.7432027,3.08058195 C22.8128835,3.22060522 23.0219261,3.36062849 23.1612878,3.36062849 L24.2065005,3.64067503 L23.509692,4.48081465 C23.3703303,4.55082629 23.3703303,4.76086119 23.3703303,4.90088446 L23.4400112,5.95105899 L22.4644793,5.53098918 C22.3251176,5.46097754 22.116075,5.46097754 21.9070324,5.53098918 L20.9315005,5.95105899 L21.0011814,4.90088446 C21.0011814,4.69084956 20.9315005,4.55082629 20.8618197,4.41080302 L20.1650112,3.5706634 L21.2102239,3.36062849 Z M19.6075644,5.11091937 L19.4682027,7.00123351 C19.4682027,7.21126842 19.5378835,7.49131496 19.7469261,7.63133823 C19.9559686,7.7713615 20.1650112,7.7713615 20.4437346,7.70134986 L22.1857559,7.00123351 L23.9277771,7.70134986 C23.997458,7.70134986 24.0671388,7.7713615 24.2065005,7.7713615 C24.3458622,7.7713615 24.4852239,7.70134986 24.6245856,7.63133823 C24.8336282,7.49131496 24.903309,7.28128005 24.903309,7.00123351 L24.7639473,5.11091937 L26.0182027,3.64067503 C26.1575644,3.43064013 26.2272452,3.22060522 26.1575644,2.94055868 C26.0878835,2.73052378 25.878841,2.52048887 25.6697984,2.45047724 L23.8580963,1.96039579 L22.8825644,0.350128187 C22.603841,-0.0699416234 21.9767133,-0.0699416234 21.6979899,0.350128187 L20.5830963,2.03040743 L18.7713941,2.52048887 C18.5623516,2.59050051 18.353309,2.73052378 18.2836282,3.01057032 C18.2139473,3.22060522 18.2836282,3.50065176 18.4229899,3.71068667 L19.6075644,5.11091937 Z" id="Fill-5"></path>
                            <path d="M30.4078872,3.36062849 C30.6176266,3.29061686 30.7562915,3.22060522 30.8266691,3.08058195 L31.3834191,2.1704307 L31.940866,3.08058195 C32.0112436,3.22060522 32.2202862,3.36062849 32.3596479,3.36062849 L33.4048606,3.64067503 L32.7080521,4.48081465 C32.5686904,4.62083792 32.5686904,4.83087283 32.5686904,4.9708961 L32.6376745,6.02107062 L31.6628394,5.60100081 C31.5234777,5.53098918 31.3144351,5.53098918 31.1046957,5.60100081 L30.1298606,6.02107062 L30.1988447,4.9708961 C30.1988447,4.76086119 30.1298606,4.62083792 30.059483,4.48081465 L29.3626745,3.64067503 L30.4078872,3.36062849 Z M28.8052277,5.11091937 L28.665866,7.00123351 C28.665866,7.21126842 28.7362436,7.49131496 28.9445894,7.63133823 C29.1536319,7.7713615 29.3626745,7.7713615 29.6413979,7.70134986 L31.3834191,7.00123351 L33.1254404,7.70134986 C33.1951213,7.70134986 33.2654989,7.7713615 33.4048606,7.7713615 C33.5435255,7.7713615 33.6828872,7.70134986 33.8222489,7.63133823 C34.0312915,7.49131496 34.1016691,7.28128005 34.1016691,7.00123351 L33.9623074,5.11091937 L35.215866,3.64067503 C35.3559245,3.43064013 35.4249085,3.22060522 35.3559245,2.94055868 C35.2855468,2.73052378 35.0765043,2.52048887 34.8674617,2.45047724 L33.0564564,1.96039579 L32.0802277,0.350128187 C31.940866,0.140093282 31.7318234,7.00116351e-05 31.5234777,7.00116351e-05 C31.3144351,7.00116351e-05 31.0350149,0.140093282 30.9660309,0.350128187 L29.9898021,1.96039579 L28.1787968,2.45047724 C27.9690574,2.52048887 27.7600149,2.66051214 27.6910309,2.94055868 C27.6206532,3.15059359 27.6910309,3.43064013 27.8303926,3.64067503 L28.8052277,5.11091937 Z" id="Fill-6"></path>
                            <path d="M39.6058989,3.36062849 C39.8149415,3.29061686 39.9543032,3.22060522 40.0246809,3.08058195 L40.5814309,2.1704307 L41.1388777,3.08058195 C41.2085585,3.22060522 41.4182979,3.36062849 41.5569628,3.36062849 L42.6021755,3.64067503 L41.905367,4.48081465 C41.7667021,4.62083792 41.7667021,4.83087283 41.7667021,4.9708961 L41.8356862,6.02107062 L40.8601543,5.60100081 C40.7904734,5.60100081 40.7214894,5.53098918 40.5814309,5.53098918 C40.4420691,5.53098918 40.3730851,5.53098918 40.3027074,5.60100081 L39.3968564,5.95105899 L39.4665372,4.90088446 C39.4665372,4.69084956 39.3968564,4.55082629 39.3278723,4.41080302 L38.6310638,3.5706634 L39.6058989,3.36062849 Z M38.0032394,5.11091937 L37.8638777,7.00123351 C37.8638777,7.21126842 37.9342553,7.49131496 38.1426011,7.63133823 C38.2826596,7.70134986 38.4213245,7.7713615 38.5606862,7.7713615 C38.6310638,7.7713615 38.7697287,7.7713615 38.8394096,7.70134986 L40.5814309,7.00123351 L42.3234521,7.70134986 C42.5324947,7.7713615 42.8119149,7.7713615 43.0202606,7.63133823 C43.2293032,7.49131496 43.298984,7.28128005 43.298984,7.00123351 L43.1603191,5.11091937 L44.4138777,3.64067503 C44.5539362,3.43064013 44.6229202,3.22060522 44.5539362,2.94055868 C44.4835585,2.73052378 44.274516,2.52048887 44.0654734,2.45047724 L42.1840904,2.03040743 L41.2085585,0.420139822 C40.9298351,7.00116351e-05 40.3027074,7.00116351e-05 40.0246809,0.420139822 L39.0484521,2.03040743 L37.2374468,2.52048887 C37.0277074,2.59050051 36.8186649,2.73052378 36.748984,3.01057032 C36.6793032,3.22060522 36.748984,3.50065176 36.8890426,3.71068667 L38.0032394,5.11091937 Z" id="Fill-7"></path>
                        </g>
                    </g>
                </g>
            </g>
        </g>
    </g>
</svg>