<?xml version="1.0" encoding="UTF-8"?>
<svg width="20px" height="19px" viewBox="0 0 20 19" version="1.1" xmlns="http://www.w3.org/2000/svg" xmlns:xlink="http://www.w3.org/1999/xlink">
    <!-- Generator: Sketch 44.1 (41455) - http://www.bohemiancoding.com/sketch -->
    <title>icon-instagram</title>
    <desc>Created with Sketch.</desc>
    <defs></defs>
    <g id="Symbols" stroke="none" stroke-width="1" fill="none" fill-rule="evenodd">
        <g id="Header" transform="translate(-1060.000000, -40.000000)" fill="#BB9A64">
            <g id="Menu-bis">
                <g transform="translate(970.000000, 26.000000)">
                    <g id="Social-icons" transform="translate(26.832370, 14.209302)">
                        <g id="icon-instagram" transform="translate(63.769481, 0.000000)">
                            <path d="M6.6795498,9.03262274 C6.6795498,7.45863765 7.97146062,6.18291782 9.56542218,6.18291782 C11.1593837,6.18291782 12.4512946,7.45863765 12.4512946,9.03262274 C12.4512946,10.6066078 11.1593837,11.8823277 9.56542218,11.8823277 C7.97146062,11.8823277 6.6795498,10.6066078 6.6795498,9.03262274 Z M5.12246653,9.03262274 C5.12246653,11.455739 7.1115526,13.4198966 9.56542218,13.4198966 C12.0192918,13.4198966 14.0083778,11.455739 14.0083778,9.03262274 C14.0083778,6.60950651 12.0192918,4.64534884 9.56542218,4.64534884 C7.1115526,4.64534884 5.12246653,6.60950651 5.12246653,9.03262274 Z" id="Fill-1"></path>
                            <path d="M15.68102,4.12919897 C15.68102,4.69958832 15.2133793,5.16149871 14.6359139,5.16149871 C14.0584485,5.16149871 13.5902173,4.69958832 13.5902173,4.12919897 C13.5902173,3.55880962 14.0584485,3.09689922 14.6359139,3.09689922 C15.2133793,3.09689922 15.68102,3.55880962 15.68102,4.12919897 Z" id="Fill-3"></path>
                            <path d="M16.7228139,14.7596899 C16.4064243,15.5704688 15.7570935,16.2105574 14.9346079,16.5230712 C14.3763107,16.727021 13.7861836,16.8355851 13.1896906,16.8431155 C12.197233,16.8870432 11.916493,16.8995939 9.37073436,16.8995939 C6.82433915,16.8995939 6.56333364,16.8995939 5.55114155,16.8431155 C4.95528507,16.8355851 4.36515798,16.727021 3.80686083,16.5230712 C2.98182879,16.2130676 2.32867842,15.5717239 2.01165221,14.7596899 C1.804121,14.2093392 1.69462601,13.6276117 1.68698682,13.0402362 C1.64242491,12.0612772 1.62969293,11.7851606 1.62969293,9.27500923 C1.62969293,6.76485788 1.62969293,6.50756737 1.68698682,5.50978221 C1.69207961,4.91613141 1.80221121,4.32812846 2.01165221,3.7715024 C2.32867842,2.95946844 2.98182879,2.31812477 3.80686083,2.00812108 C4.36515798,1.80417128 4.95528507,1.69560724 5.55114155,1.68807678 C6.54423568,1.64414913 6.82433915,1.63159838 9.37073436,1.63159838 C11.916493,1.63159838 12.1781351,1.63159838 13.1896906,1.68807678 C13.7861836,1.69560724 14.3763107,1.80417128 14.9346079,2.00812108 C15.7570935,2.32063492 16.4064243,2.96072351 16.7228139,3.7715024 C16.9303451,4.32185308 17.0398401,4.90358066 17.0481159,5.49095607 C17.0920412,6.4699151 17.1054098,6.74603175 17.1054098,9.25618309 C17.1054098,11.7663344 17.1054098,12.0361757 17.0608479,13.0214101 C17.0423865,13.6150609 16.9322549,14.2030639 16.7228139,14.7596899 Z M15.5712067,0.489479513 C14.8391181,0.219010705 14.0662871,0.0721668512 13.285817,0.0564784053 C12.2799909,0.0125507567 11.9616915,0 9.40893028,0 C6.85616909,0 6.5308671,0 5.53204358,0.0564784053 C4.75093685,0.0721668512 3.97810591,0.219010705 3.24665389,0.489479513 C1.98364187,0.971428571 0.985454945,1.9554079 0.496547065,3.20044297 C0.221536383,3.92148394 0.0732088622,4.68331488 0.0572938921,5.4533038 C0.012731976,6.44481358 0,6.7585825 0,9.27500923 C0,11.791436 0,12.1114803 0.0572938921,13.0967147 C0.0732088622,13.8667036 0.221536383,14.6285345 0.496547065,15.3495755 C0.985454945,16.593983 1.98364187,17.5785899 3.24665389,18.0605389 C3.97619611,18.3423034 4.74902706,18.4991879 5.53204358,18.5249169 C6.53786969,18.5688446 6.85616909,18.5813953 9.40893028,18.5813953 C11.9616915,18.5813953 12.2863569,18.5813953 13.285817,18.5249169 C14.0662871,18.5092285 14.8391181,18.3630122 15.5712067,18.0919158 C16.8335821,17.6099668 17.831769,16.6253599 18.3213135,15.3809524 C18.5956876,14.6599114 18.7440151,13.8980805 18.7599301,13.1280915 C18.8051286,12.1365818 18.817224,11.8228128 18.817224,9.30638612 C18.817224,6.78995939 18.817224,6.4699151 18.7599301,5.48468069 C18.7478347,4.70402362 18.5995072,3.93152455 18.3213135,3.20044297 C17.831769,1.9554079 16.8335821,0.971428571 15.5712067,0.489479513 Z" id="Fill-5"></path>
                        </g>
                    </g>
                </g>
            </g>
        </g>
    </g>
</svg>