<?xml version="1.0" encoding="UTF-8"?>
<svg width="16px" height="8px" viewBox="0 0 16 8" version="1.1" xmlns="http://www.w3.org/2000/svg" xmlns:xlink="http://www.w3.org/1999/xlink">
    <!-- Generator: Sketch 44.1 (41455) - http://www.bohemiancoding.com/sketch -->
    <title>icon-flickr</title>
    <desc>Created with Sketch.</desc>
    <defs></defs>
    <g id="Symbols" stroke="none" stroke-width="1" fill="none" fill-rule="evenodd">
        <g id="Header" transform="translate(-1026.000000, -47.000000)" fill="#BB9A64">
            <g id="Menu-bis">
                <g transform="translate(970.000000, 26.000000)">
                    <g id="Social-icons" transform="translate(26.832370, 14.209302)">
                        <g id="icon-flickr" transform="translate(29.271237, 7.226098)">
                            <path d="M3.43020895,0 C1.53569194,0 -1.42108547e-14,1.61750558 -1.42108547e-14,3.61301924 C-1.42108547e-14,5.60856276 1.53569194,7.22606834 3.43020895,7.22609819 C5.3247543,7.22609819 6.86044624,5.60856276 6.86044624,3.61301924 C6.86044624,1.61750558 5.32478264,-2.98537418e-05 3.43020895,0 Z" id="Path"></path>
                            <path d="M8.82057374,3.61301924 C8.82057374,1.61753544 10.3562373,0 12.2507827,0 C14.145328,0 15.68102,1.61753544 15.68102,3.61301924 C15.68102,5.60856276 14.1453564,7.22609819 12.2507827,7.22609819 C10.3562657,7.22609819 8.82057374,5.60856276 8.82057374,3.61301924 Z M9.87526549,3.6130491 C9.87526549,4.99450203 10.9369519,6.11439078 12.2466085,6.11439078 C13.5562652,6.11439078 14.6179516,4.99450203 14.6179516,3.6130491 C14.6179516,2.23159616 13.5562652,1.11170741 12.2466085,1.11170741 C10.9369519,1.11170741 9.87526549,2.23159616 9.87526549,3.6130491 Z" id="Path"></path>
                        </g>
                    </g>
                </g>
            </g>
        </g>
    </g>
</svg>