<?xml version="1.0" encoding="UTF-8"?>
<svg width="33px" height="47px" viewBox="0 0 33 47" version="1.1" xmlns="http://www.w3.org/2000/svg" xmlns:xlink="http://www.w3.org/1999/xlink">
    <!-- Generator: Sketch 44.1 (41455) - http://www.bohemiancoding.com/sketch -->
    <title>icon-cocktail</title>
    <desc>Created with Sketch.</desc>
    <defs>
        <polygon id="path-1" points="31.5365 0.000416666667 0 0.000416666667 0 45.8333333 31.5365 45.8333333 31.5365 0.000416666667"></polygon>
    </defs>
    <g id="Page-1" stroke="none" stroke-width="1" fill="none" fill-rule="evenodd">
        <g id="Home-page" transform="translate(-515.000000, -2135.000000)">
            <g id="Le-championnat-&amp;-vous" transform="translate(92.000000, 1986.000000)">
                <g id="Réservez-votre-table-VIP" transform="translate(306.000000, 101.000000)">
                    <g id="icon-cocktail" transform="translate(116.000000, 46.000000)">
                        <g id="Page-1" transform="translate(1.666667, 2.500000)">
                            <mask id="mask-2" fill="white">
                                <use xlink:href="#path-1"></use>
                            </mask>
                            <g id="Clip-2"></g>
                            <path d="M29.5915,4.47916667 C29.5373333,4.5 29.4798333,4.51416667 29.429,4.5475 C28.4906667,5.15583333 26.339,5.79 23.2381667,6.205 L21.1898333,6.43166667 C21.119,6.4375 21.0498333,6.44416667 20.9781667,6.45 C20.8315,6.4625 20.6873333,6.47583333 20.5373333,6.4875 C20.3131667,6.505 20.0823333,6.52 19.8506667,6.535 C19.6748333,6.54583333 19.4948333,6.55666667 19.314,6.56666667 C19.0248333,6.58166667 18.7348333,6.59666667 18.4415,6.60833333 C18.1881667,6.61916667 17.9323333,6.62833333 17.6706667,6.63583333 C17.6223333,6.63666667 17.5731667,6.63833333 17.524,6.64 C17.079,6.65083333 16.6315,6.65833333 16.1815,6.66083333 C16.0423333,6.6625 15.9098333,6.66583333 15.7681667,6.66583333 C15.6265,6.66583333 15.494,6.6625 15.3548333,6.66083333 C14.889,6.65833333 14.4256667,6.65083333 13.9656667,6.63916667 C13.6698333,6.63083333 13.3815,6.62 13.0956667,6.60833333 C12.8023333,6.59666667 12.5115,6.58166667 12.2223333,6.56666667 C11.9006667,6.54833333 11.5765,6.53166667 11.269,6.51 C11.249,6.50916667 11.2298333,6.50666667 11.209,6.505 C5.23983333,6.07166667 1.86483333,4.8625 1.66483333,4.15166667 C1.834,3.57 4.27983333,2.6175 8.649,2.07666667 C8.67483333,2.07333333 8.70066667,2.07 8.7265,2.06666667 C9.4565,1.97833333 10.2423333,1.90166667 11.0765,1.83916667 C11.144,1.83416667 11.2081667,1.8275 11.2756667,1.8225 C11.5798333,1.80083333 11.9006667,1.785 12.2173333,1.76666667 C12.5081667,1.75166667 12.8006667,1.73666667 13.0956667,1.725 C13.3806667,1.71333333 13.6698333,1.7025 13.9656667,1.69416667 C14.4265,1.6825 14.8898333,1.675 15.3565,1.6725 C15.4956667,1.67083333 15.6273333,1.6675 15.7681667,1.6675 C15.909,1.6675 16.0406667,1.67083333 16.1798333,1.6725 C16.6465,1.675 17.1098333,1.6825 17.5715,1.69416667 C17.8673333,1.7025 18.1548333,1.71333333 18.4415,1.725 C18.7365,1.73666667 19.0281667,1.75166667 19.319,1.76666667 C19.6365,1.785 19.9565,1.80083333 20.2606667,1.8225 C20.3273333,1.8275 20.3915,1.83416667 20.4573333,1.83916667 C21.2923333,1.90166667 22.079,1.97833333 22.809,2.06666667 C22.8356667,2.07 22.8615,2.07333333 22.8873333,2.07666667 C23.1415,2.1075 23.3798333,2.1425 23.6206667,2.17666667 L25.3748333,2.46583333 C28.174,3.00333333 29.7381667,3.6925 29.8715,4.15166667 C29.844,4.25166667 29.7448333,4.3625 29.5915,4.47916667 L29.5915,4.47916667 Z M17.719,19.835 C17.2431667,20.46 16.4898333,20.8333333 15.704,20.8333333 L15.7031667,20.8333333 L15.7023333,20.8333333 C14.919,20.8333333 14.1665,20.46 13.6898333,19.8358333 L3.98233333,7.1075 C5.924,7.6275 8.47816667,8 11.359,8.19 C11.434,8.19416667 11.5081667,8.19916667 11.584,8.20416667 C12.149,8.23916667 12.7248333,8.26666667 13.3131667,8.2875 C13.4348333,8.29166667 13.5548333,8.2975 13.6773333,8.30083333 C13.9623333,8.30916667 14.2506667,8.315 14.5398333,8.31916667 C14.9015,8.32666667 15.2523333,8.33083333 15.5915,8.3325 C15.629,8.3325 15.6656667,8.33333333 15.7031667,8.33333333 C15.7148333,8.33333333 15.7248333,8.33333333 15.7365,8.33333333 C15.7473333,8.33333333 15.7573333,8.33333333 15.7681667,8.33333333 C15.7898333,8.33333333 15.8123333,8.33333333 15.8331667,8.33333333 C15.8515,8.33333333 15.8681667,8.3325 15.8865,8.3325 C16.2915,8.33166667 16.714,8.32583333 17.1506667,8.31583333 C17.3106667,8.3125 17.469,8.30916667 17.6273333,8.305 C17.9806667,8.29583333 18.329,8.28083333 18.6781667,8.265 C18.9148333,8.255 19.1506667,8.24416667 19.384,8.23166667 C19.6506667,8.21666667 19.9215,8.20666667 20.1856667,8.18916667 L22.2023333,8.01833333 C22.8181667,7.955 23.4206667,7.88333333 23.999,7.80166667 C24.0231667,7.79833333 24.0415,7.78333333 24.0648333,7.77833333 C25.2556667,7.6075 26.3931667,7.39083333 27.4073333,7.12083333 L17.719,19.835 Z M24.024,42.5 C23.6873333,43.1016667 20.6415,44.1666667 15.7031667,44.1666667 C10.6665,44.1666667 7.59733333,43.0591667 7.364,42.5358333 C7.584,41.975 10.3306667,40.9583333 14.8698333,40.845 L16.5365,40.845 C20.9815,40.955 23.7065,41.9333333 24.024,42.5 L24.024,42.5 Z M26.2481667,0.9375 L24.509,0.620833333 C24.3623333,0.598333333 24.214,0.576666667 24.0648333,0.555 C24.0415,0.55 24.0231667,0.535 23.999,0.531666667 C22.0323333,0.253333333 19.824,0.085 17.539,0.0275 C16.964,0.0108333333 16.4106667,0.0025 15.8865,0.000833333333 C15.8681667,0.000833333333 15.8515,0 15.8331667,0 C15.8123333,0 15.7898333,0 15.7681667,0 C15.7473333,0 15.724,0 15.7031667,0 C15.6856667,0 15.6681667,0.000833333333 15.6506667,0.000833333333 C15.1265,0.0025 14.5731667,0.0108333333 13.9973333,0.0275 C11.7123333,0.085 9.50483333,0.253333333 7.53733333,0.531666667 C7.51316667,0.535 7.49483333,0.55 7.4715,0.555 C3.4415,1.13333333 -0.000166666667,2.2325 -0.000166666667,4.16666667 C-0.000166666667,4.72166667 0.289,5.20666667 0.789,5.63166667 C0.808166667,5.66833333 0.819,5.70833333 0.844833333,5.74166667 L12.3656667,20.8466667 C12.9831667,21.6575 13.8831667,22.2066667 14.8698333,22.41 L14.8698333,39.18 C11.1215,39.2783333 5.70316667,40.0558333 5.70316667,42.5 C5.70316667,45.1308333 11.989,45.8333333 15.7031667,45.8333333 C19.4173333,45.8333333 25.7031667,45.1308333 25.7031667,42.5 C25.7031667,40.0558333 20.2848333,39.2783333 16.5365,39.18 L16.5365,22.41 C17.5248333,22.2075 18.4265,21.6575 19.0448333,20.845 L30.4748333,5.84416667 C31.1431667,5.37083333 31.5365,4.81666667 31.5365,4.16666667 C31.5365,2.595 29.2623333,1.575 26.2481667,0.9375 L26.2481667,0.9375 Z" id="Fill-1" fill="#BB9A64" mask="url(#mask-2)"></path>
                        </g>
                    </g>
                </g>
            </g>
        </g>
    </g>
</svg>