<?xml version="1.0" encoding="UTF-8"?>
<svg width="115px" height="19px" viewBox="0 0 115 19" version="1.1" xmlns="http://www.w3.org/2000/svg" xmlns:xlink="http://www.w3.org/1999/xlink">
    <!-- Generator: Sketch 44.1 (41455) - http://www.bohemiancoding.com/sketch -->
    <title>logo-comexposium-grey</title>
    <desc>Created with Sketch.</desc>
    <defs>
        <polygon id="path-1" points="55.1934337 10.9635374 55.1934337 0.523809524 0.415165758 0.523809524 0.415165758 10.9635374 55.1934337 10.9635374"></polygon>
        <path d="M0.364906404,10.9266125 C0.364906858,11.0131061 0.392858932,11.0852137 0.436466188,11.1455782 C0.526731579,11.2696599 0.663230463,11.352381 0.812388517,11.352381 L4.30907161,11.352381 C5.49958405,11.352381 5.98613652,10.8228571 5.98613652,10.8228571 L15.1970592,0.24 L9.45254769,0.236190476 C9.38264705,0.315102041 2.25388278,8.4185034 0.820094099,10.1273469 C0.711115152,10.257415 0.634609729,10.3504762 0.597182616,10.3994558 C0.429861404,10.6209524 0.364914354,10.7902041 0.364914354,10.9240816 C0.364909046,10.9249266 0.3649064,10.9257703 0.364906404,10.9266125 L0.364906404,10.9266122 L0.364906404,10.9266125 Z" id="path-3"></path>
    </defs>
    <g id="Page-1" stroke="none" stroke-width="1" fill="none" fill-rule="evenodd">
        <g id="Home-page" transform="translate(-626.000000, -3865.000000)">
            <g id="logo-comexposium-grey" transform="translate(626.000000, 3865.000000)">
                <g id="Group-16" transform="translate(0.000000, 0.003864)">
                    <g id="Group-3" transform="translate(59.443062, 1.632653)">
                        <mask id="mask-2" fill="white">
                            <use xlink:href="#path-1"></use>
                        </mask>
                        <g id="Clip-2"></g>
                        <path d="M0.415165758,10.7997279 L2.52374327,10.7997279 L2.52374327,7.99972789 L5.31041201,7.99972789 C7.31331297,7.99972789 9.03055699,6.64462585 9.03055699,4.36598639 C9.03055699,1.83428571 7.31331297,0.67292517 5.31041201,0.67292517 L0.415165758,0.67292517 L0.415165758,10.7997279 Z M4.97907198,2.48952381 C6.01822477,2.48952381 6.84657485,3.1447619 6.84657485,4.35129252 C6.84657485,5.48326531 6.01822477,6.18312925 4.97907198,6.18312925 L2.52374327,6.18312925 L2.52374327,2.48952381 L4.97907198,2.48952381 Z M9.21108777,5.75102041 C9.21108777,8.71482993 11.4704745,10.9488435 14.4673956,10.9488435 C17.495139,10.9488435 19.7539753,8.71482993 19.7539753,5.75102041 C19.7539753,2.75782313 17.495139,0.523809524 14.4673956,0.523809524 C11.4704745,0.523809524 9.21108777,2.75782313 9.21108777,5.75102041 L9.21108777,5.75102041 Z M11.2893933,5.75102041 C11.2893933,3.88979592 12.6301646,2.5047619 14.4828067,2.5047619 C16.3651704,2.5047619 17.6756697,3.88979592 17.6756697,5.75102041 C17.6756697,7.58285714 16.3651704,8.99782313 14.4828067,8.99782313 C12.6301646,8.99782313 11.2893933,7.58285714 11.2893933,5.75102041 L11.2893933,5.75102041 Z M24.4835516,6.83836735 C25.402167,7.09142857 25.9443098,7.35972789 25.9443098,7.91047619 C25.9443098,8.58095238 25.2513578,9.04244898 24.016263,9.04244898 C22.7811683,9.04244898 21.5917567,8.56571429 20.853672,8.08952381 L20.3566619,10.069932 C21.019342,10.4421769 22.4801002,10.9488435 23.9711304,10.9488435 C26.4413198,10.9488435 28.1431527,9.65306122 28.1431527,7.74666667 C28.1431527,6.30231293 27.2399484,5.46802721 25.3873063,4.94666667 L23.4895315,4.41061224 C22.7514468,4.20217687 22.3749741,3.97904762 22.3749741,3.4277551 C22.3749741,2.84707483 22.9171168,2.44489796 24.212205,2.44489796 C25.3267624,2.44489796 26.6069898,2.81714286 27.3599353,3.29387755 L27.9626219,1.34285714 C27.1794045,0.925986395 25.763779,0.538503401 24.2876096,0.538503401 C21.4712193,0.538503401 20.1909919,1.92353741 20.1909919,3.60680272 C20.1909919,4.97659864 20.9890701,5.91482993 22.5406441,6.3170068 L24.4835516,6.83836735 Z M29.1823055,10.7997279 L31.290883,10.7997279 L31.290883,0.67292517 L29.1823055,0.67292517 L29.1823055,10.7997279 Z M34.9658953,0.67292517 L32.8573178,0.67292517 L32.8573178,6.52544218 C32.8573178,9.10176871 34.4688852,10.9635374 37.4966286,10.9635374 C40.5540935,10.9635374 42.1805217,8.90857143 42.1805217,6.52544218 L42.1805217,0.67292517 L40.0719442,0.67292517 L40.0719442,6.37687075 C40.0719442,7.94040816 39.2287334,9.0277551 37.4966286,9.0277551 C35.7942453,9.0277551 34.9658953,7.99972789 34.9658953,6.39156463 L34.9658953,0.67292517 Z M53.0850213,10.7997279 L55.1935988,10.7997279 L55.1935988,0.67292517 L53.295824,0.67292517 L49.4705528,5.18503401 L45.6447313,0.67292517 L43.7469565,0.67292517 L43.7469565,10.7997279 L45.855534,10.7997279 L45.855534,3.96380952 L49.2746109,8.04435374 L49.6510836,8.04435374 L53.0850213,3.96380952 L53.0850213,10.7997279 Z" id="Fill-1" fill="#FEFEFE" mask="url(#mask-2)"></path>
                    </g>
                    <path d="M9.84933013,7.39118367 C9.84933013,10.3588027 12.1120193,12.5960816 15.1133435,12.5960816 C18.1449397,12.5960816 20.4076289,10.3588027 20.4076289,7.39118367 C20.4076289,4.39363265 18.1449397,2.15635374 15.1133435,2.15635374 C12.1120193,2.15635374 9.84933013,4.39363265 9.84933013,7.39118367 L9.84933013,7.39118367 Z M11.9309381,7.39118367 C11.9309381,5.52669388 13.2733606,4.14002721 15.1287547,4.14002721 C17.0138703,4.14002721 18.3260209,5.52669388 18.3260209,7.39118367 C18.3260209,9.2257415 17.0138703,10.6423401 15.1287547,10.6423401 C13.2733606,10.6423401 11.9309381,9.2257415 11.9309381,7.39118367 L11.9309381,7.39118367 Z M30.8151183,12.446966 L32.9264478,12.446966 L32.9264478,2.30546939 L31.025921,2.30546939 L27.1951459,6.82465306 L23.3638204,2.30546939 L21.4632936,2.30546939 L21.4632936,12.446966 L23.5751735,12.446966 L23.5751735,5.6012517 L26.9986536,9.68778231 L27.3756767,9.68778231 L30.8151183,5.6012517 L30.8151183,12.446966 Z M42.7307003,12.446966 L42.7307003,10.6124082 L36.6366856,10.6124082 L36.6366856,8.16669388 L41.6293525,8.16669388 L41.6293525,6.33213605 L36.6366856,6.33213605 L36.6366856,4.14002721 L42.7307003,4.14002721 L42.7307003,2.30546939 L34.6156215,2.30546939 L34.6156215,12.446966 L42.7307003,12.446966 Z" id="Fill-4" fill="#FEFEFE"></path>
                    <path d="M8.77566734,3.68266667 C8.08546734,2.70906122 6.89935809,2.15668027 5.27953464,2.15668027 C2.24793847,2.15668027 0.000110079745,4.09518367 0.000110079745,7.3915102 C0.000110079745,10.6573605 2.24793847,12.5964082 5.27953464,12.5964082 C6.98411949,12.5964082 8.56761662,11.820898 9.48788329,10.9555918 L8.49221199,9.38987755 C7.73816574,10.0755918 6.5916852,10.6573605 5.32466734,10.6573605 C3.43955171,10.6573605 2.18739461,9.46443537 2.18739461,7.3915102 C2.18739461,5.28865306 3.43955171,4.09518367 5.24926271,4.09518367 C6.10072954,4.09518367 6.69350896,4.37817687 7.0639273,4.86797279 L8.77566734,3.68266667 Z" id="Fill-6" fill="#FEFEFE"></path>
                    <path d="M54.400199,7.04522449 L52.2129145,4.37529252 C52.2129145,4.37529252 53.3065567,3.03379592 53.5091035,2.77311565 C53.7204566,2.56468027 54.0033615,2.25937415 54.7513534,2.19733333 L57.3613441,2.19733333 C57.3613441,2.19733333 57.6954362,2.19733333 57.8236791,2.49665306 C57.8897269,2.65012245 57.8847733,2.8269932 57.7482744,2.9869932 C57.2187909,3.61012245 54.400199,7.04522449 54.400199,7.04522449" id="Fill-8" fill="#FEFEFE"></path>
                    <path d="M54.400199,8.1397551 L52.2129145,10.7563537 L53.0264038,11.8730884 C53.0264038,11.8730884 53.609276,12.5860136 54.473402,12.5860136 L56.9501963,12.5860136 C56.9501963,12.5860136 57.2325508,12.5860136 57.3701505,12.364517 C57.4598655,12.2192109 57.4813311,11.9661497 57.343181,11.7974422 C56.9457931,11.3103673 54.400199,8.1397551 54.400199,8.1397551" id="Fill-10" fill="#FEFEFE"></path>
                    <path d="M47.9805685,7.31069388 L43.0033128,1.21164626 C43.0033128,1.21164626 42.3967734,0.470965986 43.5388507,0.400217687 C44.6809281,0.329469388 47.3222916,0.400217687 47.3222916,0.400217687 C47.3222916,0.400217687 47.9805685,0.38062585 48.5353704,0.929197279 C49.2255704,1.61164626 53.7256303,7.3145034 53.7256303,7.3145034 L47.9805685,7.31069388" id="Fill-12" fill="#878786"></path>
                    <path d="M53.7253551,7.31439456 L44.5138821,17.8972517 C44.5138821,17.8972517 44.0267792,18.4267755 42.8368172,18.4267755 L39.3406845,18.4267755 C39.190976,18.4267755 39.0544771,18.3445986 38.9642118,18.2199728 C38.8524808,18.0675918 38.8464264,17.8411973 39.1249282,17.4743946 C39.6599157,16.7685442 47.9802933,7.31058503 47.9802933,7.31058503 L53.7253551,7.31439456" id="Fill-14" fill="#878786"></path>
                </g>
                <path d="M43.982362,0.384816327 C43.819444,0.389170068 43.6691852,0.396244898 43.5387407,0.403863946 L43.5387407,0.403863946 C42.9866907,0.43814966 42.8435871,0.62862585 42.8430367,0.816380952 L42.8430367,0.816380952 C42.8540447,1.01393197 43.0037531,1.2054966 43.0037531,1.2054966 L43.0037531,1.2054966 L48.3376671,7.304 L53.7167139,7.30780952 L53.7167139,7.30726531 C53.5026088,7.0362449 49.2083979,1.59842177 48.5347099,0.933387755 L48.5347099,0.933387755 C48.0178855,0.421278912 47.4091445,0.403863946 47.3304375,0.403863946 L47.3304375,0.403863946 L47.3221815,0.403863946 C47.3221815,0.403863946 46.9352512,0.39352381 46.3942093,0.384816327 L46.3942093,0.384816327 C45.9940694,0.382095238 45.5102689,0.37937415 45.034174,0.37937415 L45.034174,0.37937415 C44.6637557,0.37937415 44.2993917,0.380462585 43.982362,0.384816327" id="Fill-18"></path>
                <g id="Group-23" transform="translate(38.527911, 7.078694)">
                    <mask id="mask-4" fill="white">
                        <use xlink:href="#path-3"></use>
                    </mask>
                    <g id="Clip-22"></g>
                    <path d="M0.820094099,10.1273469 C0.711115152,10.257415 0.634609729,10.3504762 0.597182616,10.3994558 L0.597182616,10.3994558 C0.429861404,10.6209524 0.364914354,10.7902041 0.364914354,10.9240816 L0.364914354,10.9240816 C0.364363955,11.0117007 0.39243429,11.0846259 0.436466188,11.1455782 L0.436466188,11.1455782 C0.526731579,11.2696599 0.663230463,11.352381 0.812388517,11.352381 L0.812388517,11.352381 L4.30907161,11.352381 C5.49958405,11.352381 5.98613652,10.8228571 5.98613652,10.8228571 L5.98613652,10.8228571 L15.1970592,0.24 L9.45254769,0.236190476 C9.38264705,0.315102041 2.25388278,8.4185034 0.820094099,10.1273469" id="Fill-21" mask="url(#mask-4)"></path>
                </g>
            </g>
        </g>
    </g>
</svg>