<?xml version="1.0" encoding="UTF-8"?>
<svg width="115px" height="66px" viewBox="0 0 115 66" version="1.1" xmlns="http://www.w3.org/2000/svg" xmlns:xlink="http://www.w3.org/1999/xlink">
    <!-- Generator: Sketch 44.1 (41455) - http://www.bohemiancoding.com/sketch -->
    <title>Logo - CMCA</title>
    <desc>Created with Sketch.</desc>
    <defs>
        <polygon id="path-1" points="0 65.6381604 114.558924 65.6381604 114.558924 7.25274725e-05 0 7.25274725e-05"></polygon>
    </defs>
    <g id="Symbols" stroke="none" stroke-width="1" fill="none" fill-rule="evenodd">
        <g id="Header" transform="translate(-44.000000, -17.000000)">
            <g id="Logo-cmca">
                <g transform="translate(44.000000, 17.000000)">
                    <g id="Logo---CMCA">
                        <g id="Page-1">
                            <path d="M98.1610886,10.721156 C98.1610886,10.721156 97.9478291,37.0080132 78.7100759,58.4928264 C78.7100759,58.4928264 98.7994114,41.6780571 98.1610886,10.721156 Z" id="Fill-1" fill="#FFFFFF"></path>
                            <path d="M98.5953956,23.6493231 C98.5953956,23.6493231 98.5648259,36.0355648 113.643655,58.2384 C113.643655,58.2384 98.7395095,42.8451692 98.5953956,23.6493231" id="Fill-3" fill="#FFFFFF"></path>
                            <path d="M93.3433165,54.9062703 C100.165437,51.362578 105.379741,57.1364901 106.308475,58.4107978 C103.707873,54.2455451 98.5678101,50.4733912 93.0907532,54.2332154 C93.3760696,54.8707319 93.3192975,54.8663802 93.3433165,54.9062703" id="Fill-5" fill="#FFFFFF"></path>
                            <path d="M94.4137627,50.7146901 C96.3905981,50.3462505 97.9030665,49.5187121 99.2211994,48.5018769 C100.200155,48.7927121 100.949839,47.6634593 101.92006,47.9448659 C102.064902,49.6456352 100.067687,49.6811736 100.254744,51.1411516 C101.192212,50.851767 103.064237,48.6331516 102.834965,47.5749758 C102.596959,46.4841626 101.120155,46.9976571 100.278035,46.4014813 L100.014554,46.3115473 C99.7226867,44.1284703 98.1978449,43.3683824 97.9547437,41.1294593 C98.6811361,41.6030637 99.5130665,41.9511956 100.023288,42.6692176 C101.559775,42.078844 100.571358,41.376778 99.8755348,40.4846901 C99.1076551,39.4983165 98.6061677,38.8782066 98.0792057,37.9411516 C97.7320222,37.8831297 97.9663892,38.3944484 97.7742373,38.4909099 C97.5704399,38.3676132 97.5427816,38.0376132 97.3105981,37.9462286 C97.3040475,38.5133934 97.3098703,38.5619868 97.3921171,39.1313275 C97.0201867,39.5773714 96.3374652,39.9581407 96.031769,40.502822 C95.1969272,41.9758549 95.7544589,44.5056132 94.8584778,45.885811 C93.8635095,47.4067121 91.9601867,47.2188659 90.6828133,48.6360527 C86.4001551,47.0506022 88.5545854,53.9146022 86.0689842,54.9495692 C86.2502184,54.9981626 86.6228766,54.8291736 86.6723703,55.0315253 C86.6534462,55.302778 85.9132247,55.6487341 86.2953449,55.7640527 C87.0261044,55.6356791 87.694269,54.9952615 88.1149652,54.8436791 C88.0472753,55.1773055 87.7619589,55.2911736 87.6513259,55.5740308 C88.7598386,54.9894593 89.6711044,54.7247341 89.7118639,53.1980308 C89.7555348,51.5255473 88.3427816,49.0878989 90.5445222,49.0944264 C90.348731,50.7444264 91.594807,51.8192835 91.4201234,53.1900527 C91.3713576,53.5729978 90.9492057,53.8703604 90.9790475,54.2830418 C91.053288,55.1359648 92.1465158,55.5740308 92.6567373,56.2789978 C93.0716108,56.8519648 93.3307247,57.4184044 93.5483513,58.095811 C93.832212,58.0392396 94.3489842,58.2104044 94.4821804,58.0015253 C94.2798386,57.786844 94.0840475,57.6113275 93.9275601,57.3661846 C93.5869272,56.8454374 92.1945538,54.9249099 92.1836361,54.3664484 C92.1749019,53.8145143 93.1021804,52.7976791 93.4100601,52.2660527 C93.7201234,51.7278989 93.8780665,51.2717011 94.0782247,50.7821407 L94.4137627,50.7146901 Z" id="Fill-7" fill="#FFFFFF"></path>
                            <path d="M91.5521551,55.9991143 L91.0048133,55.5305868 C89.8773766,56.3450703 88.576712,57.5570044 87.6516171,58.5397516 C87.6516171,58.5397516 90.3635791,56.6163231 91.5521551,55.9991143" id="Fill-9" fill="#FFFFFF"></path>
                            <path d="M7.32397152,5.03297143 L7.90115506,6.03602637 C7.76140823,6.17527912 7.54523734,6.32758681 7.25191456,6.4973011 C6.65726266,6.84398242 6.16014241,7.0767956 5.75837025,7.19501538 C5.3565981,7.31468571 4.87621835,7.37343297 4.31723101,7.37343297 C3.20580696,7.37343297 2.29745253,7.10870769 1.59216772,6.57925714 C1.17365506,6.26666374 0.844667722,5.87936703 0.606661392,5.41954286 C0.328623418,4.89807033 0.188148734,4.32147692 0.188148734,3.68686154 C0.188148734,2.82305934 0.435617089,2.07094945 0.932737342,1.43198242 C1.67950949,0.478246154 2.8084019,0.00101538462 4.31723101,0.00101538462 C4.87621835,0.00101538462 5.35514241,0.0590373626 5.75254747,0.177982418 C6.15140823,0.296927473 6.64998418,0.529740659 7.25191456,0.877872527 C7.53868671,1.03670769 7.75412975,1.19771868 7.90115506,1.35872967 L7.32397152,2.36033407 C7.01754747,2.06224615 6.74969937,1.84901538 6.51824367,1.72354286 C5.88938291,1.37613626 5.2219462,1.20061978 4.51666139,1.20061978 C3.67818038,1.20061978 3.00783228,1.4065978 2.50416139,1.81782857 C1.91023734,2.29070769 1.61327532,2.91444396 1.61327532,3.68686154 C1.61327532,4.45202637 1.91023734,5.07576264 2.50416139,5.55589451 C3.00783228,5.95914725 3.67818038,6.16222418 4.51666139,6.16222418 C5.2219462,6.16222418 5.88938291,5.98743297 6.51824367,5.6393011 C6.74096519,5.51455385 7.01099684,5.31292747 7.32397152,5.03297143" id="Fill-11" fill="#FFFFFF"></path>
                            <polygon id="Fill-13" fill="#FFFFFF" points="14.7186899 4.13631429 10.4214747 4.13631429 10.4214747 7.24774286 9.02764557 7.24774286 9.02764557 0.125545055 10.4214747 0.125545055 10.4214747 2.96572088 14.7186899 2.96572088 14.7186899 0.125545055 16.112519 0.125545055 16.112519 7.24774286 14.7186899 7.24774286"></polygon>
                            <path d="M22.4787152,5.4310022 L19.125519,5.4310022 L18.2135253,7.24854066 L16.9354241,7.24854066 L20.2464051,0.124892308 L21.483019,0.124892308 L24.8791582,7.24854066 L23.3907089,7.24854066 L22.4787152,5.4310022 Z M22.1016899,4.45840879 L20.8228608,1.92284835 L19.5229241,4.45840879 L22.1016899,4.45840879 Z" id="Fill-15" fill="#FFFFFF"></path>
                            <polygon id="Fill-17" fill="#FFFFFF" points="29.6107532 7.15352967 26.8958797 2.3290022 26.8958797 7.24854066 25.6279684 7.24854066 25.6279684 0.124892308 27.3675253 0.124892308 29.7461329 4.39676044 32.2513861 0.124892308 33.8752152 0.124892308 33.8752152 7.24854066 32.4813861 7.24854066 32.4813861 2.3290022"></polygon>
                            <path d="M36.7200823,4.35512967 L36.7200823,7.24825055 L35.326981,7.24825055 L35.326981,0.124602198 L39.3730886,0.124602198 C39.8891329,0.124602198 40.2952722,0.160865934 40.5922342,0.229767033 C40.8891962,0.300843956 41.1497658,0.419063736 41.3732152,0.585876923 C41.6046709,0.765745055 41.7851772,1.00000879 41.9176456,1.28431648 C42.0435633,1.58385495 42.1068861,1.90152527 42.1068861,2.23442637 C42.1068861,2.71600879 41.9816962,3.13666813 41.7298608,3.49858022 C41.5202405,3.8118989 41.2392911,4.03238242 40.8870127,4.16148132 C40.5325506,4.29058022 40.0288797,4.35512967 39.3730886,4.35512967 L36.7200823,4.35512967 Z M36.7200823,3.18453626 L39.1925823,3.18453626 C39.6824241,3.18453626 40.0288797,3.13376703 40.2312215,3.02787692 C40.3709684,2.9655033 40.4808734,2.86178901 40.5602089,2.71600879 C40.6417278,2.5695033 40.6817595,2.41066813 40.6817595,2.23442637 C40.6817595,2.06833846 40.6417278,1.91022857 40.5602089,1.76517363 C40.4808734,1.61939341 40.3709684,1.51422857 40.2312215,1.45112967 C40.0288797,1.34814066 39.6824241,1.2951956 39.1925823,1.2951956 L36.7200823,1.2951956 L36.7200823,3.18453626 Z" id="Fill-19" fill="#FFFFFF"></path>
                            <mask id="mask-2" fill="white">
                                <use xlink:href="#path-1"></use>
                            </mask>
                            <g id="Clip-22"></g>
                            <polygon id="Fill-21" fill="#FFFFFF" mask="url(#mask-2)" points="42.8680696 7.24846813 44.2618987 7.24846813 44.2618987 0.12481978 42.8680696 0.12481978"></polygon>
                            <path d="M49.2242943,-1.42108547e-14 C50.4529019,-1.42108547e-14 51.4245791,0.335076923 52.1364146,1.00305495 C52.891193,1.7072967 53.2682184,2.61389011 53.2682184,3.72936264 C53.2682184,4.4103956 53.0869842,5.04863736 52.7230601,5.63901099 C52.0185032,6.79437363 50.8546741,7.37241758 49.2337563,7.37241758 C48.01825,7.37241758 47.0538513,7.03734066 46.3420158,6.36936264 C45.9642627,6.00817582 45.6738513,5.57591209 45.4722373,5.07474725 C45.2968259,4.63740659 45.2094842,4.17395604 45.2094842,3.68584615 C45.2094842,2.97072527 45.3914462,2.3158022 45.7546424,1.72252747 C46.432269,0.595450549 47.5888196,0.021032967 49.2242943,-1.42108547e-14 M49.2337563,1.20032967 C48.5284715,1.20032967 47.9410981,1.40413187 47.4730918,1.80665934 C46.9141044,2.28679121 46.6353386,2.91487912 46.6353386,3.68584615 C46.6353386,4.45826374 46.9141044,5.08345055 47.4730918,5.55487912 C47.9410981,5.95958242 48.5313829,6.16120879 49.2446741,6.16120879 C49.949231,6.16120879 50.5366044,5.95958242 51.0053386,5.55487912 C51.2841044,5.32061538 51.4973639,5.02832967 51.6443892,4.67874725 C51.7768576,4.36615385 51.8438196,4.04413187 51.8438196,3.71703297 C51.8438196,2.91052747 51.5643259,2.27446154 51.0053386,1.80665934 C50.5300538,1.40848352 49.9390411,1.20758242 49.2337563,1.20032967" id="Fill-23" fill="#FFFFFF" mask="url(#mask-2)"></path>
                            <polygon id="Fill-24" fill="#FFFFFF" mask="url(#mask-2)" points="55.496307 2.37128571 55.496307 7.24803297 54.2276677 7.24803297 54.2276677 0.12510989 55.4839335 0.12510989 60.1901994 4.89814286 60.1901994 0.12510989 61.4581108 0.12510989 61.4581108 7.24803297 60.3255791 7.24803297"></polygon>
                            <polygon id="Fill-25" fill="#FFFFFF" mask="url(#mask-2)" points="64.1782247 2.37128571 64.1782247 7.24803297 62.9095854 7.24803297 62.9095854 0.12510989 64.1680348 0.12510989 68.8721171 4.89814286 68.8721171 0.12510989 70.1414842 0.12510989 70.1414842 7.24803297 69.0104082 7.24803297"></polygon>
                            <path d="M76.5076076,5.4310022 L73.1536835,5.4310022 L72.2431456,7.24854066 L70.9650443,7.24854066 L74.2767532,0.124892308 L75.5111835,0.124892308 L78.9087785,7.24854066 L77.4188734,7.24854066 L76.5076076,5.4310022 Z M76.1305823,4.45840879 L74.852481,1.92284835 L73.5518165,4.45840879 L76.1305823,4.45840879 Z" id="Fill-26" fill="#FFFFFF" mask="url(#mask-2)"></path>
                            <polygon id="Fill-27" fill="#FFFFFF" mask="url(#mask-2)" points="82.9153639 1.29541319 82.9153639 7.24846813 81.5215348 7.24846813 81.5215348 1.29541319 78.7535285 1.29541319 78.7535285 0.12481978 85.6833703 0.12481978 85.6833703 1.29541319"></polygon>
                            <path d="M87.7145759,2.06812088 L90.3137215,2.06812088 C90.9396709,2.06812088 91.4193228,2.13847253 91.7541329,2.28135165 C92.2272342,2.49458242 92.5787848,2.84053846 92.8073291,3.3213956 C92.9834684,3.70071429 93.0729937,4.14675824 93.0729937,4.65807692 C93.0729937,5.54943956 92.8073291,6.23047253 92.2730886,6.70045055 C92.0438165,6.89845055 91.7796076,7.0377033 91.4760949,7.12256044 C91.174038,7.20596703 90.7875506,7.24803297 90.3137215,7.24803297 L87.7145759,7.24803297 L87.7145759,2.06812088 Z M88.7291962,6.39728571 L90.2161899,6.39728571 C90.6820127,6.39728571 91.0357468,6.33418681 91.2752089,6.20726374 C91.782519,5.94471429 92.036538,5.42831868 92.036538,4.65807692 C92.036538,4.10106593 91.8997025,3.67242857 91.6253038,3.37506593 C91.4717278,3.21332967 91.2861266,3.09583516 91.0685,3.02548352 C90.8501456,2.95295604 90.5648291,2.91959341 90.2161899,2.91959341 L88.7291962,2.91959341 L88.7291962,6.39728571 Z" id="Fill-28" fill="#FFFFFF" mask="url(#mask-2)"></path>
                            <path d="M98.8185538,5.37298022 C98.8185538,5.91911209 98.7224778,6.32744176 98.5295981,6.60087033 C98.1751361,7.09333187 97.4320032,7.33847473 96.3031108,7.33847473 C95.4850095,7.33847473 94.8626994,7.2072 94.4361804,6.94392527 C94.193807,6.78799121 94.0256741,6.57766154 93.9332373,6.31366154 C93.8371614,6.05111209 93.7898513,5.73706813 93.7898513,5.37298022 L93.7898513,2.0679033 L94.8015601,2.0679033 L94.8015601,5.05313407 C94.8015601,5.35122198 94.8204842,5.57098022 94.8561487,5.71313407 C94.8910854,5.85601319 94.9573196,5.97423297 95.0555791,6.07069451 C95.3125095,6.32744176 95.7441234,6.45726593 96.349693,6.45726593 C96.953807,6.45726593 97.3868766,6.32744176 97.6452627,6.07069451 C97.7406108,5.97423297 97.8075728,5.85601319 97.8432373,5.71313407 C97.8789019,5.57098022 97.8963703,5.35122198 97.8963703,5.05313407 L97.8963703,2.0679033 L98.8185538,2.0679033 L98.8185538,5.37298022 Z" id="Fill-29" fill="#FFFFFF" mask="url(#mask-2)"></path>
                            <polygon id="Fill-30" fill="#FFFFFF" mask="url(#mask-2)" points="9.33268671 24.7464462 3.6037943 14.563589 3.6037943 24.9444462 0.927496835 24.9444462 0.927496835 9.91385275 4.59876266 9.91385275 9.62091456 18.927567 14.9058196 9.91385275 18.3361677 9.91385275 18.3361677 24.9444462 15.3942057 24.9444462 15.3942057 14.563589"></polygon>
                            <path d="M29.4661297,9.64738681 C32.0609082,9.64738681 34.1119842,10.3552549 35.6157184,11.7644637 C37.20825,13.2491011 38.0052437,15.1667275 38.0052437,17.5187934 C38.0052437,18.9570132 37.6209399,20.3016725 36.8545158,21.5505956 C35.3638829,23.9904198 32.9095791,25.208156 29.488693,25.208156 C26.9215728,25.208156 24.8872373,24.503189 23.3827753,23.0925297 C22.5872373,22.3288154 21.9743892,21.4178703 21.5471424,20.3604198 C21.1781234,19.434244 20.9939778,18.4572989 20.9939778,17.4295846 C20.9939778,15.9166615 21.3782816,14.5335626 22.1439778,13.2853648 C23.5741994,10.9042879 26.0161297,9.69307912 29.4661297,9.64738681 M29.488693,12.182222 C27.998788,12.182222 26.7607184,12.6094088 25.7723006,13.4630571 C24.5924589,14.4748154 24.0029019,15.7984418 24.0029019,17.4295846 C24.0029019,19.0600022 24.5924589,20.3756505 25.7723006,21.3743538 C26.7607184,22.2280022 28.0060665,22.6544637 29.5105285,22.6544637 C30.9997057,22.6544637 32.2385032,22.2280022 33.2254652,21.3743538 C33.81575,20.8753648 34.266288,20.258156 34.5763513,19.5227275 C34.8551171,18.8612769 34.9955918,18.1853209 34.9955918,17.4955846 C34.9955918,15.7919143 34.4060348,14.4458044 33.2254652,13.4630571 C32.2232184,12.6239143 30.9778703,12.1989033 29.488693,12.182222" id="Fill-31" fill="#FFFFFF" mask="url(#mask-2)"></path>
                            <polygon id="Fill-32" fill="#FFFFFF" mask="url(#mask-2)" points="43.3613323 14.6520725 43.3613323 24.9437209 40.6857627 24.9437209 40.6857627 9.91385275 43.3402247 9.91385275 53.271712 19.9857429 53.271712 9.91385275 55.9472816 9.91385275 55.9472816 24.9437209 53.5599399 24.9437209"></polygon>
                            <path d="M59.6682595,9.91370769 L67.2116772,9.91370769 C69.024019,9.91370769 70.4193038,10.1189604 71.3924367,10.5301912 C72.7629747,11.1474 73.7805063,12.1540813 74.4435759,13.5502352 C74.9610759,14.6519275 75.219462,15.9436418 75.219462,17.4304549 C75.219462,20.0153341 74.4435759,21.9909824 72.8968987,23.3588505 C72.2331013,23.9318176 71.4623101,24.3386967 70.5852532,24.5816637 C69.7074684,24.825356 68.5822152,24.9450264 67.2116772,24.9450264 L59.6682595,24.9450264 L59.6682595,9.91370769 Z M62.6102215,22.4761912 L66.9227215,22.4761912 C68.2801582,22.4761912 69.3042405,22.2926967 69.9978797,21.9257077 C71.4725,21.1619934 72.2098101,19.6621253 72.2098101,17.4304549 C72.2098101,15.812367 71.8124051,14.571422 71.0161392,13.7039934 C70.5736076,13.2340154 70.0335443,12.8967626 69.4010443,12.6915099 C68.7670886,12.4855319 67.940981,12.3810923 66.9227215,12.3810923 L62.6102215,12.3810923 L62.6102215,22.4761912 Z" id="Fill-33" fill="#FFFFFF" mask="url(#mask-2)"></path>
                            <polygon id="Fill-34" fill="#FFFFFF" mask="url(#mask-2)" points="80.8420158 18.3542374 80.8420158 22.4766989 91.7029652 22.4766989 91.7029652 24.9440835 77.9007816 24.9440835 77.9007816 9.91349011 91.4358449 9.91349011 91.4358449 12.3823253 80.8420158 12.3823253 80.8420158 15.9528527 88.1168576 15.9528527 88.1168576 18.3542374"></polygon>
                            <path d="M0.693420886,32.5559143 L3.28164873,32.5559143 C3.90395886,32.5559143 4.38142722,32.6262659 4.71696519,32.7691451 C5.18569937,32.9787495 5.53506646,33.3239802 5.76288291,33.8026615 C5.93975,34.1827055 6.02781962,34.6251231 6.02781962,35.1335407 C6.02781962,36.0205516 5.76288291,36.7001341 5.23228165,37.1686615 C5.00519304,37.365211 4.73880063,37.5044637 4.43819937,37.5871451 C4.13832595,37.6712769 3.75256646,37.7133429 3.28164873,37.7133429 L0.693420886,37.7133429 L0.693420886,32.5559143 Z M1.70367405,36.8654967 L3.18193354,36.8654967 C3.64921203,36.8654967 3.99930696,36.8038484 4.23804114,36.6776505 C4.74462342,36.4143758 4.99645886,35.900156 4.99645886,35.1335407 C4.99645886,34.5794308 4.85962342,34.152244 4.58668038,33.8570571 C4.43383228,33.6945956 4.24968671,33.5792769 4.03278797,33.5074747 C3.81516139,33.4385736 3.53130063,33.4023099 3.18193354,33.4023099 L1.70367405,33.4023099 L1.70367405,36.8654967 Z" id="Fill-35" fill="#FFFFFF" mask="url(#mask-2)"></path>
                            <path d="M11.5080791,35.8451077 C11.5080791,36.389789 11.4120032,36.7966681 11.2198513,37.0686462 C10.8653892,37.5589319 10.1266234,37.8033495 9.00428165,37.8033495 C8.18909177,37.8033495 7.56969304,37.6728 7.14462975,37.4102505 C6.90225633,37.2528659 6.73485127,37.0432615 6.64387025,36.7828879 C6.5477943,36.5203385 6.50048418,36.2084703 6.50048418,35.8451077 L6.50048418,32.5559868 L7.5085538,32.5559868 L7.5085538,35.5274374 C7.5085538,35.8240747 7.52747785,36.043833 7.56241456,36.1859868 C7.59807911,36.3266901 7.66358544,36.4449099 7.75966139,36.5413714 C8.01804747,36.7966681 8.4482057,36.9272176 9.04940823,36.9272176 C9.65133861,36.9272176 10.0814968,36.7966681 10.3398829,36.5413714 C10.4359589,36.4449099 10.5014652,36.3266901 10.5364019,36.1859868 C10.5713386,36.043833 10.5895348,35.8240747 10.5895348,35.5274374 L10.5895348,32.5559868 L11.5080791,32.5559868 L11.5080791,35.8451077 Z" id="Fill-36" fill="#FFFFFF" mask="url(#mask-2)"></path>
                            <path d="M26.2643987,37.0095363 L27.2033228,38.6421297 C26.9762342,38.8698659 26.6232278,39.1193604 26.1443038,39.3913385 C25.1769937,39.957778 24.3661709,40.3392725 23.7118354,40.5307451 C23.0575,40.7236681 22.2750633,40.8208549 21.3652532,40.8208549 C19.5543671,40.8208549 18.0746519,40.3893165 16.9246519,39.5269648 C16.2426582,39.0170967 15.706962,38.3861077 15.319019,37.6383495 C14.8648418,36.7883275 14.6362975,35.8469209 14.6362975,34.8163055 C14.6362975,33.4099978 15.0417089,32.1835582 15.8496203,31.1384374 C17.0673101,29.5863495 18.9058544,28.8081297 21.3652532,28.8081297 C22.2750633,28.8081297 23.0553165,28.9060418 23.7038291,29.0989648 C24.3523418,29.2911626 25.1660759,29.6719319 26.1443038,30.2383714 C26.6123101,30.4987451 26.9645886,30.7612945 27.2033228,31.0209429 L26.2643987,32.6549868 C25.7636392,32.1661516 25.3254747,31.8201956 24.9499051,31.6156681 C23.9250949,31.0485033 22.8376899,30.7656462 21.6891456,30.7656462 C20.3237025,30.7656462 19.2297468,31.0999978 18.4101899,31.7687011 C17.4436076,32.5403934 16.9595886,33.5550527 16.9595886,34.8163055 C16.9595886,36.0623275 17.4436076,37.0769868 18.4101899,37.8602835 C19.2297468,38.5181077 20.3237025,38.8466571 21.6891456,38.8466571 C22.8376899,38.8466571 23.9250949,38.5645253 24.9499051,37.9959099 C25.3138291,37.792833 25.7527215,37.4642835 26.2643987,37.0095363" id="Fill-37" fill="#FFFFFF" mask="url(#mask-2)"></path>
                            <polygon id="Fill-38" fill="#FFFFFF" mask="url(#mask-2)" points="38.0304272 35.5469473 31.030712 35.5469473 31.030712 40.6166176 28.7590981 40.6166176 28.7590981 29.012222 31.030712 29.012222 31.030712 33.6402 38.0304272 33.6402 38.0304272 29.012222 40.3013133 29.012222 40.3013133 40.6166176 38.0304272 40.6166176"></polygon>
                            <polygon id="Fill-39" fill="#FFFFFF" mask="url(#mask-2)" points="45.1472532 35.5292505 45.1472532 38.711756 53.5298797 38.711756 53.5298797 40.617778 42.8763671 40.617778 42.8763671 29.0126571 53.3253544 29.0126571 53.3253544 30.9186791 45.1472532 30.9186791 45.1472532 33.6747231 50.764057 33.6747231 50.764057 35.5292505"></polygon>
                            <polygon id="Fill-40" fill="#FFFFFF" mask="url(#mask-2)" points="60.3570222 37.2482242 64.1629399 29.0134549 66.4687627 29.0134549 61.3294272 40.6178505 59.3147437 40.6178505 54.1069905 29.0134549 56.5496487 29.0134549"></polygon>
                            <path d="M73.8094019,37.6561912 L68.3469019,37.6561912 L66.8599082,40.6174879 L64.7782627,40.6174879 L70.1716171,29.012367 L72.1884842,29.012367 L77.7208576,40.6174879 L75.294212,40.6174879 L73.8094019,37.6561912 Z M73.1965538,36.0729165 L71.1119968,31.9388505 L68.9961424,36.0729165 L73.1965538,36.0729165 Z" id="Fill-41" fill="#FFFFFF" mask="url(#mask-2)"></path>
                            <polygon id="Fill-42" fill="#FFFFFF" mask="url(#mask-2)" points="80.7573671 38.7115385 88.8153734 38.7115385 88.8153734 40.6175604 78.486481 40.6175604 78.486481 29.0124396 80.7573671 29.0124396"></polygon>
                            <path d="M11.0560127,54.7058044 L4.39329114,54.7058044 L2.58240506,58.3147714 L0.0422151899,58.3147714 L6.62123418,44.1661121 L9.07699367,44.1661121 L15.8234177,58.3147714 L12.8668987,58.3147714 L11.0560127,54.7058044 Z M10.3063291,52.7758484 L7.76541139,47.7344637 L5.18373418,52.7758484 L10.3063291,52.7758484 Z" id="Fill-43" fill="#FFFFFF" mask="url(#mask-2)"></path>
                            <path d="M19.7400411,52.5476769 L19.7400411,58.3143363 L16.9705791,58.3143363 L16.9705791,44.1656769 L25.0293133,44.1656769 C26.0963386,44.1656769 26.9435538,44.2287758 27.5680475,44.3535231 C28.193269,44.4775451 28.7340601,44.6922264 29.1918766,44.9953912 C29.7057373,45.3551275 30.0944082,45.8461385 30.3593449,46.4691495 C30.593712,47.0646 30.7123513,47.7013912 30.7123513,48.3773473 C30.7123513,50.6880725 29.3869399,52.0363582 26.7353892,52.4229297 L30.7945981,58.3143363 L27.7776677,58.3143363 L23.7781424,52.5476769 L19.7400411,52.5476769 Z M19.7400411,50.2050396 L24.6959589,50.2050396 C25.4165285,50.2050396 25.92675,50.1832813 26.2251677,50.1419407 C26.5235854,50.0991495 26.8110854,50.0164681 27.0891234,49.8917209 C27.6721297,49.6023363 27.9639968,49.0902923 27.9639968,48.3577648 C27.9639968,47.6114571 27.6721297,47.0986879 27.0891234,46.821633 C26.8256424,46.6838308 26.544693,46.5938967 26.2462753,46.552556 C25.9485854,46.5112154 25.4310854,46.4901824 24.6959589,46.4901824 L19.7400411,46.4901824 L19.7400411,50.2050396 Z" id="Fill-44" fill="#FFFFFF" mask="url(#mask-2)"></path>
                            <path d="M42.311557,54.7058044 L35.6495633,54.7058044 L33.8379494,58.3147714 L31.2977595,58.3147714 L37.8767785,44.1661121 L40.332538,44.1661121 L47.078962,58.3147714 L44.122443,58.3147714 L42.311557,54.7058044 Z M41.5626013,52.7758484 L39.0216835,47.7344637 L36.4400063,52.7758484 L41.5626013,52.7758484 Z" id="Fill-45" fill="#FFFFFF" mask="url(#mask-2)"></path>
                            <path d="M59.6163639,50.9087011 C61.3915854,51.5034264 62.2795601,52.6167231 62.2795601,54.2478659 C62.2795601,55.5345033 61.8370285,56.544811 60.9468703,57.2773385 C60.4897816,57.6508549 59.9635475,57.9163055 59.3659842,58.0765912 C58.767693,58.2361516 58.0187373,58.3152066 57.1169335,58.3152066 L48.2277247,58.3152066 L48.2277247,44.165822 L57.0135791,44.165822 C57.9306677,44.165822 58.6585158,44.2368989 59.2000348,44.3739758 C59.7400981,44.5125033 60.2117437,44.7482176 60.6142437,45.0796681 C61.4199715,45.728789 61.8224715,46.6759978 61.8224715,47.9220198 C61.8224715,49.3051187 61.0873449,50.2994703 59.6163639,50.9087011 L59.6163639,50.9087011 Z M50.995731,49.7881516 L56.6176297,49.7881516 C57.4779462,49.7881516 58.0878829,49.6721077 58.4496234,49.4356681 C58.8513956,49.1600637 59.0537373,48.7299758 59.0537373,48.149756 C59.0537373,47.555756 58.8615854,47.1292945 58.4809209,46.8725473 C58.0995285,46.6172505 57.4779462,46.4896022 56.6176297,46.4896022 L50.995731,46.4896022 L50.995731,49.7881516 Z M50.995731,55.9921516 L56.4305728,55.9921516 C57.4430095,55.9921516 58.1788639,55.8536242 58.6359525,55.5765692 C59.1781994,55.2734044 59.4489589,54.7671626 59.4489589,54.0621956 C59.4489589,53.3565033 59.1781994,52.8451846 58.6359525,52.526789 C58.1788639,52.2642396 57.4430095,52.1322396 56.4305728,52.1322396 L50.995731,52.1322396 L50.995731,55.9921516 Z" id="Fill-46" fill="#FFFFFF" mask="url(#mask-2)"></path>
                            <polygon id="Fill-47" fill="#FFFFFF" mask="url(#mask-2)" points="66.5095949 52.1128022 66.5095949 55.9915714 76.7322215 55.9915714 76.7322215 58.3146264 63.7401329 58.3146264 63.7401329 44.165967 76.4818418 44.165967 76.4818418 46.4904725 66.5095949 46.4904725 66.5095949 49.8513956 73.3586456 49.8513956 73.3586456 52.1128022"></polygon>
                            <polygon id="Fill-48" fill="#FFFFFF" mask="url(#mask-2)" points="50.8122405 63.3432462 49.884962 65.568389 49.3965759 65.568389 48.2087278 62.3648505 48.8623354 62.3648505 49.6687911 64.3441253 50.4876203 62.3648505 51.1812595 62.3648505 51.9818924 64.3441253 52.7665127 62.3648505 53.4383165 62.3648505 52.2279051 65.568389 51.6754684 65.568389"></polygon>
                            <path d="M55.6771772,62.2956593 C56.1692025,62.2956593 56.5811646,62.4269341 56.9108797,62.6858571 C57.3046456,62.9984505 57.5026203,63.4343407 57.5026203,63.9964286 C57.5026203,64.5171758 57.3046456,64.9371099 56.9108797,65.2482527 C56.5840759,65.5071758 56.1757532,65.6377253 55.683,65.6377253 C55.1873354,65.6377253 54.7761013,65.5071758 54.4500253,65.2482527 C54.0562595,64.9371099 53.8590127,64.5084725 53.8590127,63.9681429 C53.8590127,63.4212857 54.0562595,62.9955495 54.4500253,62.6858571 C54.7790127,62.4334615 55.1880633,62.3050879 55.6771772,62.2956593 M55.6771772,62.9027143 C55.3401835,62.9027143 55.0621456,63.0093297 54.8423354,63.2225604 C54.6450886,63.4212857 54.5468291,63.6693297 54.5468291,63.9681429 C54.5468291,64.2647802 54.6450886,64.5120989 54.8423354,64.7115495 C55.0621456,64.9240549 55.3423671,65.0313956 55.683,65.0313956 C56.0207215,65.0313956 56.2980316,64.9240549 56.5178418,64.7115495 C56.7150886,64.5171758 56.8140759,64.2742088 56.8140759,63.9833736 C56.8140759,63.6678791 56.7150886,63.4154835 56.5178418,63.2225604 C56.2980316,63.012956 56.0178101,62.9070659 55.6771772,62.9027143" id="Fill-49" fill="#FFFFFF" mask="url(#mask-2)"></path>
                            <path d="M58.9340063,64.2540462 L58.9340063,65.568244 L58.2629304,65.568244 L58.2629304,62.3647055 L60.1211266,62.3647055 C60.3867911,62.3647055 60.5884051,62.3799363 60.7266962,62.408222 C60.8649873,62.4365077 60.9894494,62.4858264 61.1000823,62.5598044 C61.3111582,62.7084857 61.4188797,62.9543538 61.4188797,63.2981341 C61.4188797,63.5563319 61.3519177,63.7601341 61.2201772,63.9030132 C61.0862532,64.0480681 60.8431519,64.153233 60.4923291,64.219233 L61.4247025,65.568244 L60.6670127,65.568244 L59.764481,64.2540462 L58.9340063,64.2540462 Z M58.9340063,63.6745516 L60.1284051,63.6745516 C60.3103671,63.6745516 60.4435633,63.6564198 60.5309051,63.6179802 C60.6670127,63.5643099 60.7361582,63.4620462 60.7361582,63.3090132 C60.7361582,63.1748374 60.6881203,63.0820022 60.5935,63.0297824 C60.4988797,62.9761121 60.3438481,62.9485516 60.1284051,62.9485516 L58.9340063,62.9485516 L58.9340063,63.6745516 Z" id="Fill-50" fill="#FFFFFF" mask="url(#mask-2)"></path>
                            <polygon id="Fill-51" fill="#FFFFFF" mask="url(#mask-2)" points="62.9301108 64.9907077 65.0001108 64.9907077 65.0001108 65.5687516 62.2590348 65.5687516 62.2590348 62.3644879 62.9301108 62.3644879"></polygon>
                            <path d="M65.6012405,62.3650681 L67.2388987,62.3650681 C67.621019,62.3650681 67.9216203,62.4136615 68.1428861,62.5130242 C68.4456709,62.6515516 68.6632975,62.8778374 68.7957658,63.1947824 C68.8911139,63.4174418 68.9376962,63.6734637 68.9376962,63.9679253 C68.9376962,64.5169582 68.7812089,64.9310901 68.4660506,65.2139473 C68.3263038,65.3408703 68.1588987,65.4308044 67.9652911,65.4866505 C67.7724114,65.5417714 67.5293101,65.5686066 67.2388987,65.5686066 L65.6012405,65.5686066 L65.6012405,62.3650681 Z M66.2723165,64.9912879 L67.1304494,64.9912879 C67.5132975,64.9912879 67.7964304,64.9057055 67.9776646,64.7323648 C68.1588987,64.5546725 68.2506076,64.2993758 68.2506076,63.9679253 C68.2506076,63.6393758 68.1588987,63.3855297 67.9776646,63.2071121 C67.8830443,63.1157275 67.7673165,63.0482769 67.6326646,63.0098374 C67.4987405,62.9699473 67.3313354,62.9489143 67.1304494,62.9489143 L66.2723165,62.9489143 L66.2723165,64.9912879 Z" id="Fill-52" fill="#FFFFFF" mask="url(#mask-2)"></path>
                            <path d="M2.50518038,64.7689912 L0.986889241,64.7689912 L0.623693038,65.5689692 L-7.27848101e-05,65.5689692 L1.52185759,62.3647055 L2.03426266,62.3647055 L3.62461076,65.5689692 L2.95426266,65.5689692 L2.50518038,64.7689912 Z M2.32321835,64.3214967 L1.72638291,63.2923319 L1.15938924,64.3214967 L2.32321835,64.3214967 Z" id="Fill-53" fill="#FFFFFF" mask="url(#mask-2)"></path>
                            <path d="M5.00075316,64.2540462 L5.00075316,65.568244 L4.33040506,65.568244 L4.33040506,62.3647055 L6.18932911,62.3647055 C6.45353797,62.3647055 6.65587975,62.3799363 6.79417089,62.408222 C6.93246203,62.4365077 7.0561962,62.4858264 7.16610127,62.5598044 C7.37863291,62.7084857 7.48417089,62.9543538 7.48417089,63.2981341 C7.48417089,63.5563319 7.41939241,63.7601341 7.28546835,63.9030132 C7.153,64.0480681 6.91135443,64.153233 6.5583481,64.219233 L7.48999367,65.568244 L6.73448734,65.568244 L5.8305,64.2540462 L5.00075316,64.2540462 Z M5.00075316,63.6745516 L6.1951519,63.6745516 C6.37638608,63.6745516 6.51031013,63.6564198 6.59837975,63.6179802 C6.73448734,63.5643099 6.80363291,63.4620462 6.80363291,63.3090132 C6.80363291,63.1748374 6.75559494,63.0820022 6.66024684,63.0297824 C6.56562658,62.9761121 6.41059494,62.9485516 6.1951519,62.9485516 L5.00075316,62.9485516 L5.00075316,63.6745516 Z" id="Fill-54" fill="#FFFFFF" mask="url(#mask-2)"></path>
                            <path d="M10.5364019,64.7689912 L9.01883861,64.7689912 L8.65564241,65.5689692 L8.03042089,65.5689692 L9.55380696,62.3647055 L10.0654842,62.3647055 L11.6565601,65.5689692 L10.9854842,65.5689692 L10.5364019,64.7689912 Z M10.3551677,64.3214967 L9.75760443,63.2923319 L9.19061076,64.3214967 L10.3551677,64.3214967 Z" id="Fill-55" fill="#FFFFFF" mask="url(#mask-2)"></path>
                            <path d="M14.9536392,63.8475297 C15.1618038,63.9193319 15.3000949,63.9925846 15.3685127,64.0651121 C15.500981,64.2014637 15.567943,64.3856835 15.567943,64.6184967 C15.567943,64.9303648 15.4558544,65.1755077 15.2324051,65.3444967 C15.031519,65.4946286 14.753481,65.5686066 14.3968354,65.5686066 L12.3617722,65.5686066 L12.3617722,62.3650681 L14.3626266,62.3650681 C14.7411076,62.3650681 15.0184177,62.4354198 15.1923734,62.5782989 C15.3736076,62.7262549 15.4653165,62.9293319 15.4653165,63.1882549 C15.4653165,63.3420132 15.434019,63.4667604 15.3706962,63.5639473 C15.3088291,63.6611341 15.1698101,63.7561451 14.9536392,63.8475297 L14.9536392,63.8475297 Z M13.0328481,63.5668484 L14.2316139,63.5668484 C14.4208544,63.5668484 14.5598734,63.5443648 14.6464873,63.4979473 C14.7338291,63.4529802 14.7775,63.3717495 14.7775,63.257156 C14.7775,63.1440132 14.7352848,63.0627824 14.6493987,63.0178154 C14.5642405,62.9713978 14.4252215,62.9489143 14.2316139,62.9489143 L13.0328481,62.9489143 L13.0328481,63.5668484 Z M13.0328481,64.9905626 L14.26,64.9905626 C14.6734177,64.9905626 14.8793987,64.8505846 14.8793987,64.5670022 C14.8793987,64.2884967 14.6734177,64.1506945 14.26,64.1506945 L13.0328481,64.1506945 L13.0328481,64.9905626 Z" id="Fill-56" fill="#FFFFFF" mask="url(#mask-2)"></path>
                            <polygon id="Fill-57" fill="#FFFFFF" mask="url(#mask-2)" points="16.3016139 65.5685341 16.9712342 65.5685341 16.9712342 62.3649956 16.3016139 62.3649956"></polygon>
                            <path d="M20.1942184,64.7689912 L18.6759272,64.7689912 L18.312731,65.5689692 L17.6875095,65.5689692 L19.2108956,62.3647055 L19.7225728,62.3647055 L21.3136487,65.5689692 L20.6425728,65.5689692 L20.1942184,64.7689912 Z M20.0122563,64.3214967 L19.4154209,63.2923319 L18.8469715,64.3214967 L20.0122563,64.3214967 Z" id="Fill-58" fill="#FFFFFF" mask="url(#mask-2)"></path>
                            <polygon id="Fill-59" fill="#FFFFFF" mask="url(#mask-2)" points="22.6215918 63.4586374 22.6215918 65.5684615 22.0182057 65.5684615 22.0182057 62.3641978 22.6092184 62.3641978 24.7294399 64.4247033 24.7294399 62.3641978 25.3320981 62.3641978 25.3320981 65.5684615 24.8036804 65.5684615"></polygon>
                            <polygon id="Fill-60" fill="#FFFFFF" mask="url(#mask-2)" points="30.3290665 64.1789802 28.4650475 64.1789802 28.4650475 65.5686066 27.7939715 65.5686066 27.7939715 62.3650681 28.4650475 62.3650681 28.4650475 63.5951341 30.3290665 63.5951341 30.3290665 62.3650681 30.9994146 62.3650681 30.9994146 65.5686066 30.3290665 65.5686066"></polygon>
                            <path d="M33.5802184,62.2956593 C34.0729715,62.2956593 34.4842057,62.4269341 34.8139209,62.6858571 C35.2076867,62.9984505 35.4042057,63.4343407 35.4042057,63.9964286 C35.4042057,64.5171758 35.2076867,64.9371099 34.8139209,65.2482527 C34.4863892,65.5071758 34.0780665,65.6377253 33.5860411,65.6377253 C33.0889209,65.6377253 32.6776867,65.5071758 32.3516108,65.2482527 C31.9585728,64.9371099 31.7613259,64.5084725 31.7613259,63.9681429 C31.7613259,63.4212857 31.9585728,62.9955495 32.3516108,62.6858571 C32.6813259,62.4334615 33.0911044,62.3050879 33.5802184,62.2956593 M33.5802184,62.9027143 C33.241769,62.9027143 32.963731,63.0093297 32.7446487,63.2225604 C32.5474019,63.4212857 32.4484146,63.6693297 32.4484146,63.9681429 C32.4484146,64.2647802 32.5474019,64.5120989 32.7446487,64.7115495 C32.963731,64.9240549 33.2446804,65.0313956 33.5860411,65.0313956 C33.9230348,65.0313956 34.2018006,64.9240549 34.4216108,64.7115495 C34.6188576,64.5171758 34.7163892,64.2742088 34.7163892,63.9833736 C34.7163892,63.6678791 34.6188576,63.4154835 34.4216108,63.2225604 C34.2018006,63.012956 33.9208513,62.9070659 33.5802184,62.9027143" id="Fill-61" fill="#FFFFFF" mask="url(#mask-2)"></path>
                            <path d="M36.8366835,64.2540462 L36.8366835,65.568244 L36.1656076,65.568244 L36.1656076,62.3647055 L38.0245316,62.3647055 C38.2901962,62.3647055 38.4918101,62.3799363 38.6301013,62.408222 C38.7676646,62.4365077 38.8921266,62.4858264 39.0020316,62.5598044 C39.2145633,62.7084857 39.3208291,62.9543538 39.3208291,63.2981341 C39.3208291,63.5563319 39.2545949,63.7601341 39.1206709,63.9030132 C38.9882025,64.0480681 38.746557,64.153233 38.3942785,64.219233 L39.3259241,65.568244 L38.5711456,65.568244 L37.6671582,64.2540462 L36.8366835,64.2540462 Z M36.8366835,63.6745516 L38.0303544,63.6745516 C38.2123165,63.6745516 38.3462405,63.6564198 38.4335823,63.6179802 C38.5711456,63.5643099 38.6388354,63.4620462 38.6388354,63.3090132 C38.6388354,63.1748374 38.5915253,63.0820022 38.4961772,63.0297824 C38.401557,62.9761121 38.2465253,62.9485516 38.0303544,62.9485516 L36.8366835,62.9485516 L36.8366835,63.6745516 Z" id="Fill-62" fill="#FFFFFF" mask="url(#mask-2)"></path>
                            <path d="M42.8609367,62.7780396 L42.5778038,63.2567209 C42.4220443,63.1312484 42.2371709,63.0362374 42.0195443,62.9753143 C41.8041013,62.9114901 41.5872025,62.8817538 41.3673924,62.8817538 C41.1774241,62.8817538 41.0085633,62.9071385 40.861538,62.9608088 C40.6373608,63.0333363 40.5252722,63.1385011 40.5252722,63.2799297 C40.5252722,63.3763912 40.5791329,63.4423912 40.6904937,63.481556 C40.7996709,63.5185451 40.9976456,63.5482813 41.2815063,63.5729407 L41.7313165,63.6063033 C42.121443,63.6382154 42.414038,63.7143692 42.6112848,63.8354901 C42.7168228,63.9036659 42.8048924,63.9965011 42.8733101,64.1103692 C42.9642911,64.2554242 43.0094177,64.4178857 43.0094177,64.5984791 C43.0094177,64.9205011 42.8718544,65.1786989 42.5952722,65.3687209 C42.3216013,65.5471385 41.9525823,65.6370725 41.4860316,65.6370725 C40.9932785,65.6501275 40.4954304,65.5123253 39.9910316,65.2258418 L40.1962848,64.7449846 C40.3505886,64.8370945 40.5471076,64.9110725 40.7814747,64.9712703 C41.0165696,65.0300176 41.2487532,65.0597538 41.4809367,65.0597538 C41.6847342,65.0597538 41.8703354,65.0321934 42.0370127,64.9785231 C42.2531835,64.9139736 42.3616329,64.8102593 42.3616329,64.6659297 C42.3616329,64.5469846 42.284481,64.4643033 42.1279937,64.4193363 C42.0348291,64.3896 41.8645127,64.3642154 41.6221392,64.3439077 L41.1788797,64.3047429 C40.9365063,64.2858857 40.7530886,64.2619516 40.6308101,64.2307648 C40.5070759,64.2003033 40.4000823,64.1560615 40.3098291,64.0994901 C40.1962848,64.0240615 40.1067595,63.9174462 40.0427089,63.787622 C39.9779304,63.655622 39.9466329,63.5112923 39.9466329,63.3560835 C39.9466329,63.0043253 40.0878354,62.7352484 40.3724241,62.5481275 C40.6373608,62.3791385 40.9663481,62.2964571 41.3601139,62.2964571 C41.5777405,62.2964571 41.8019177,62.327644 42.0348291,62.3892923 C42.2670127,62.4494901 42.5428671,62.5800396 42.8609367,62.7780396" id="Fill-63" fill="#FFFFFF" mask="url(#mask-2)"></path>
                            <polygon id="Fill-64" fill="#FFFFFF" mask="url(#mask-2)" points="44.414019 64.2073385 44.414019 64.9906352 46.7220253 64.9906352 46.7220253 65.5686791 43.742943 65.5686791 43.742943 62.3651407 46.6354114 62.3651407 46.6354114 62.9489868 44.414019 62.9489868 44.414019 63.6525033 45.9024684 63.6525033 45.9024684 64.2073385"></polygon>
                            <path d="M73.9118101,64.5621429 L74.1396266,65.0654835 C73.8907025,65.2533297 73.6235823,65.3933077 73.337538,65.4926703 C73.0493101,65.5898571 72.7792785,65.637 72.5259873,65.637 C72.0179494,65.637 71.6030759,65.5137033 71.2820949,65.2656593 C71.1001329,65.1206044 70.956019,64.9407363 70.8497532,64.7282308 C70.7362089,64.4954176 70.677981,64.2408462 70.677981,63.9681429 C70.677981,63.5939011 70.7827911,63.2624505 70.9916835,62.9716154 C71.3257658,62.5219451 71.8345316,62.2963846 72.5201646,62.2963846 C72.7749114,62.2963846 73.0318418,62.3406264 73.2902278,62.4305604 C73.5493418,62.5212198 73.8346582,62.6902088 74.1396266,62.9368022 L73.8725063,63.3944505 C73.7298481,63.2551978 73.5522532,63.1362527 73.3419051,63.0434176 C73.131557,62.9498571 72.8993734,62.901989 72.6453544,62.901989 C72.2894367,62.901989 71.9946582,62.9948242 71.7653861,63.1783187 C71.4989937,63.3842967 71.3672532,63.6461209 71.3672532,63.9681429 C71.3672532,64.2916154 71.4989937,64.5570659 71.7653861,64.7623187 C71.9982975,64.9450879 72.2923481,65.0379231 72.6453544,65.0379231 C73.1155443,64.9958571 73.5376962,64.837022 73.9118101,64.5621429" id="Fill-65" fill="#FFFFFF" mask="url(#mask-2)"></path>
                            <polygon id="Fill-66" fill="#FFFFFF" mask="url(#mask-2)" points="77.5218639 64.1789802 75.6585728 64.1789802 75.6585728 65.5686066 74.9874968 65.5686066 74.9874968 62.3650681 75.6585728 62.3650681 75.6585728 63.5951341 77.5218639 63.5951341 77.5218639 62.3650681 78.1929399 62.3650681 78.1929399 65.5686066 77.5218639 65.5686066"></polygon>
                            <path d="M81.4213101,64.7689912 L79.9044747,64.7689912 L79.5405506,65.5689692 L78.916057,65.5689692 L80.4379873,62.3647055 L80.9503924,62.3647055 L82.5407405,65.5689692 L81.8711203,65.5689692 L81.4213101,64.7689912 Z M81.2400759,64.3214967 L80.6432405,63.2923319 L80.0740633,64.3214967 L81.2400759,64.3214967 Z" id="Fill-67" fill="#FFFFFF" mask="url(#mask-2)"></path>
                            <polygon id="Fill-68" fill="#FFFFFF" mask="url(#mask-2)" points="85.0534177 65.4722901 83.8488291 63.4625538 83.8488291 65.5694769 83.2461709 65.5694769 83.2461709 62.3652132 83.9456329 62.3652132 85.1152848 64.2407736 86.2863924 62.3652132 86.9967722 62.3652132 86.9967722 65.5694769 86.3256962 65.5694769 86.3256962 63.4625538"></polygon>
                            <path d="M88.6805759,64.2540462 L88.6805759,65.568244 L88.0095,65.568244 L88.0095,62.3647055 L89.8567785,62.3647055 C90.2585506,62.3647055 90.5584241,62.4278044 90.7607658,62.5540022 C90.8743101,62.6258044 90.9623797,62.7295187 91.0271582,62.8629692 C91.0919367,62.9964198 91.1232342,63.1451011 91.1232342,63.3090132 C91.1232342,63.6295846 91.0206076,63.8667495 90.8131709,64.021233 C90.6071899,64.1764418 90.2883924,64.2540462 89.8567785,64.2540462 L88.6805759,64.2540462 Z M88.6805759,63.6745516 L89.8109241,63.6745516 C90.0154494,63.6745516 90.1617468,63.6564198 90.2483608,63.6179802 C90.3779177,63.5606835 90.4405127,63.4591451 90.4405127,63.3090132 C90.4405127,63.1596066 90.376462,63.060244 90.2432658,63.0058484 C90.1632025,62.9681341 90.0198165,62.9485516 89.8109241,62.9485516 L88.6805759,62.9485516 L88.6805759,63.6745516 Z" id="Fill-69" fill="#FFFFFF" mask="url(#mask-2)"></path>
                            <polygon id="Fill-70" fill="#FFFFFF" mask="url(#mask-2)" points="91.8005696 65.5685341 92.4716456 65.5685341 92.4716456 62.3649956 91.8005696 62.3649956"></polygon>
                            <path d="M95.0449525,62.2956593 C95.5384335,62.2956593 95.9489399,62.4269341 96.2793829,62.6858571 C96.6738766,62.9984505 96.8703956,63.4343407 96.8703956,63.9964286 C96.8703956,64.5171758 96.6738766,64.9371099 96.2793829,65.2482527 C95.9518513,65.5071758 95.5442563,65.6377253 95.052231,65.6377253 C94.5543829,65.6377253 94.1438766,65.5071758 93.8170728,65.2482527 C93.423307,64.9371099 93.226788,64.5084725 93.226788,63.9681429 C93.226788,63.4212857 93.423307,62.9955495 93.8170728,62.6858571 C94.1482437,62.4334615 94.5572943,62.3050879 95.0449525,62.2956593 M95.0449525,62.9027143 C94.7079589,62.9027143 94.429193,63.0093297 94.2108386,63.2225604 C94.0143196,63.4212857 93.9153323,63.6693297 93.9153323,63.9681429 C93.9153323,64.2647802 94.0143196,64.5120989 94.2108386,64.7115495 C94.429193,64.9240549 94.7108703,65.0313956 95.052231,65.0313956 C95.3892247,65.0313956 95.6672627,64.9240549 95.8878006,64.7115495 C96.0828639,64.5171758 96.1818513,64.2742088 96.1818513,63.9833736 C96.1818513,63.6678791 96.0828639,63.4154835 95.8878006,63.2225604 C95.6672627,63.012956 95.387769,62.9070659 95.0449525,62.9027143" id="Fill-71" fill="#FFFFFF" mask="url(#mask-2)"></path>
                            <polygon id="Fill-72" fill="#FFFFFF" mask="url(#mask-2)" points="98.2335823 63.4586374 98.2335823 65.5684615 97.6316519 65.5684615 97.6316519 62.3641978 98.2233924 62.3641978 100.343614 64.4247033 100.343614 62.3641978 100.945544 62.3641978 100.945544 65.5684615 100.417127 65.5684615"></polygon>
                            <path d="M104.656987,62.7780396 L104.373127,63.2567209 C104.218095,63.1312484 104.033949,63.0362374 103.816323,62.9753143 C103.600152,62.9114901 103.382525,62.8817538 103.161987,62.8817538 C102.973475,62.8817538 102.805342,62.9071385 102.656861,62.9608088 C102.434139,63.0333363 102.321323,63.1385011 102.321323,63.2799297 C102.321323,63.3763912 102.375911,63.4423912 102.485816,63.481556 C102.596449,63.5185451 102.793696,63.5482813 103.076829,63.5729407 L103.525911,63.6063033 C103.916766,63.6382154 104.210816,63.7143692 104.407335,63.8354901 C104.514329,63.9036659 104.600943,63.9965011 104.669361,64.1103692 C104.760342,64.2554242 104.805468,64.4178857 104.805468,64.5984791 C104.805468,64.9205011 104.666449,65.1786989 104.389867,65.3687209 C104.117652,65.5471385 103.748633,65.6370725 103.281354,65.6370725 C102.790057,65.6501275 102.291481,65.5123253 101.78781,65.2258418 L101.991608,64.7449846 C102.146639,64.8370945 102.343158,64.9110725 102.576797,64.9712703 C102.811892,65.0300176 103.044076,65.0597538 103.276987,65.0597538 C103.480785,65.0597538 103.667114,65.0321934 103.833063,64.9785231 C104.049234,64.9139736 104.156956,64.8102593 104.156956,64.6659297 C104.156956,64.5469846 104.080532,64.4643033 103.922589,64.4193363 C103.830152,64.3896 103.660563,64.3642154 103.41819,64.3439077 L102.974203,64.3047429 C102.731101,64.2858857 102.549139,64.2619516 102.426133,64.2307648 C102.303854,64.2003033 102.196133,64.1560615 102.10588,64.0994901 C101.991608,64.0240615 101.90281,63.9174462 101.838759,63.787622 C101.773981,63.655622 101.742684,63.5112923 101.742684,63.3560835 C101.742684,63.0043253 101.883886,62.7352484 102.167019,62.5481275 C102.434139,62.3791385 102.762399,62.2964571 103.156165,62.2964571 C103.373791,62.2964571 103.597241,62.327644 103.830152,62.3892923 C104.063791,62.4494901 104.338918,62.5800396 104.656987,62.7780396" id="Fill-73" fill="#FFFFFF" mask="url(#mask-2)"></path>
                            <polygon id="Fill-74" fill="#FFFFFF" mask="url(#mask-2)" points="108.073725 64.1789802 106.209706 64.1789802 106.209706 65.5686066 105.539358 65.5686066 105.539358 62.3650681 106.209706 62.3650681 106.209706 63.5951341 108.073725 63.5951341 108.073725 62.3650681 108.744801 62.3650681 108.744801 65.5686066 108.073725 65.5686066"></polygon>
                            <polygon id="Fill-75" fill="#FFFFFF" mask="url(#mask-2)" points="109.760949 65.5685341 110.433481 65.5685341 110.433481 62.3649956 109.760949 62.3649956"></polygon>
                            <path d="M112.115975,64.2540462 L112.115975,65.568244 L111.444171,65.568244 L111.444171,62.3647055 L113.290722,62.3647055 C113.693222,62.3647055 113.994551,62.4278044 114.196165,62.5540022 C114.308981,62.6258044 114.398506,62.7295187 114.462557,62.8629692 C114.527335,62.9964198 114.558633,63.1451011 114.558633,63.3090132 C114.558633,63.6295846 114.456006,63.8667495 114.250753,64.021233 C114.042589,64.1764418 113.722335,64.2540462 113.290722,64.2540462 L112.115975,64.2540462 Z M112.115975,63.6745516 L113.246323,63.6745516 C113.450848,63.6745516 113.597146,63.6564198 113.683032,63.6179802 C113.812589,63.5606835 113.877367,63.4591451 113.877367,63.3090132 C113.877367,63.1596066 113.811133,63.060244 113.678665,63.0058484 C113.598601,62.9681341 113.454487,62.9485516 113.246323,62.9485516 L112.115975,62.9485516 L112.115975,63.6745516 Z" id="Fill-76" fill="#FFFFFF" mask="url(#mask-2)"></path>
                        </g>
                    </g>
                </g>
            </g>
        </g>
    </g>
</svg>